<?xml version="1.0" standalone="no"?>
<!DOCTYPE svg PUBLIC "-//W3C//DTD SVG 1.1//EN" "http://www.w3.org/Graphics/SVG/1.1/DTD/svg11.dtd" >
<svg xmlns="http://www.w3.org/2000/svg">
<metadata>Generated by IcoMoon</metadata>
<defs>
<font id="icomoon" horiz-adv-x="1024">
<font-face units-per-em="1024" ascent="960" descent="-64" />
<missing-glyph horiz-adv-x="1024" />
<glyph unicode="&#x20;" horiz-adv-x="512" d="" />
<glyph unicode="&#xe900;" glyph-name="card_yinhao" d="M957.952 115.712c17.901 21.662 32.336 46.991 41.974 74.572l0.522 1.716c9.86 26.887 15.563 57.933 15.563 90.311 0 56.713-17.497 109.339-47.387 152.775l0.592-0.911c-28.246 39.978-71.177 67.964-120.786 76.142l-1.070 0.146h-17.408l-14.848 2.56q-34.816 5.12-34.816 29.184c7.576 31.721 23.788 58.911 45.997 79.795l0.083 0.077c43.263 47.084 94.033 86.419 150.57 116.3l3.030 1.46c24.636 10.819 41.962 34.137 44.017 61.709l0.015 0.243c0.023 0.594 0.036 1.292 0.036 1.992 0 14.67-5.66 28.017-14.916 37.978l0.032-0.035c-9.183 9.622-22.042 15.667-36.314 15.872h-0.038c-61.651-9.299-115.978-35.439-159.6-73.53l0.368 0.314c-78.073-55.64-142.218-125.504-189.792-206.294l-1.696-3.114c-43.331-69.222-69.758-152.934-71.671-242.68l-0.009-0.52c0.079-40.576 7.201-79.463 20.208-115.539l-0.752 2.387c11.875-36.549 29.324-68.217 51.636-95.788l-0.436 0.556c39.276-51.719 100.747-84.821 169.956-84.992h0.028c1.385-0.033 3.015-0.052 4.651-0.052 65.493 0 123.981 29.993 162.478 76.992l0.295 0.371zM409.6 115.712c17.007 21.712 30.619 47.072 39.459 74.57l0.477 1.718c9.636 25.727 15.258 55.455 15.36 86.484v0.044c0.038 1.651 0.059 3.597 0.059 5.547 0 55.362-17.263 106.692-46.699 148.901l0.56-0.849c-27.451 40.262-70.29 68.291-119.869 75.658l-0.963 0.118h-18.432l-13.824 2.56q-34.304 5.12-34.304 29.184c7.373 31.602 23.223 58.767 45.011 79.828l0.045 0.044c43.712 46.426 94.374 85.66 150.457 116.194l3.143 1.566c24.709 11.113 41.936 34.856 43.511 62.784l0.009 0.192c0.023 0.594 0.036 1.292 0.036 1.992 0 14.67-5.66 28.017-14.916 37.978l0.032-0.035c-9.416 10.68-23.123 17.388-38.396 17.408h-0.004c-61.657-9.269-115.99-35.415-159.596-73.528l0.364 0.312c-77.765-55.615-141.593-125.489-188.773-206.274l-1.691-3.134c-42.807-69.353-68.856-153.055-70.648-242.707l-0.008-0.493c0.068-40.574 7.191-79.463 20.207-115.535l-0.751 2.383c11.887-36.546 29.335-68.213 51.637-95.791l-0.437 0.559c39.076-51.833 100.529-84.992 169.728-84.992 0.090 0 0.18 0 0.27 0h-0.014c2.548-0.113 5.535-0.178 8.538-0.178 64.804 0 122.578 30.099 160.105 77.080l0.317 0.41z" />
<glyph unicode="&#xe901;" glyph-name="card_zhankai" d="M473.234 395.337l-457.143 471.406c-9.908 10.142-16.021 24.029-16.021 39.344 0 14.754 5.674 28.184 14.958 38.225l-0.034-0.038c9.527 9.882 22.881 16.019 37.669 16.019s28.141-6.137 37.653-16.004l0.015-0.016 421.669-435.566 421.303 434.834c9.527 9.882 22.881 16.019 37.669 16.019s28.141-6.137 37.653-16.004l0.015-0.016c9.679-10.097 15.639-23.827 15.639-38.949s-5.959-28.851-15.658-38.968l0.019 0.020-458.24-470.309c-5.229-5.343-11.573-9.572-18.658-12.312l-0.36-0.122c-1.148-0.071-2.489-0.111-3.84-0.111s-2.692 0.040-4.023 0.12l0.183-0.009c-3.529-1.090-7.641-1.87-11.882-2.183l-0.187-0.011c-4.391 0.241-8.51 1.026-12.413 2.291l0.344-0.096c-1.152-0.129-2.487-0.202-3.84-0.202s-2.688 0.073-4.003 0.217l0.163-0.014c-7.287 2.952-13.496 7.166-18.642 12.425l-0.009 0.010zM933.669 500.663c9.527 9.882 22.881 16.019 37.669 16.019s28.141-6.137 37.653-16.004l0.015-0.016c9.679-10.097 15.639-23.827 15.639-38.949s-5.959-28.851-15.658-38.968l0.019 0.020-458.24-470.309c-5.229-5.343-11.573-9.572-18.658-12.312l-0.36-0.122c-1.149-0.087-2.489-0.136-3.84-0.136s-2.691 0.050-4.017 0.147l0.177-0.010c-3.435-1.603-7.463-2.986-11.654-3.943l-0.415-0.080c-4.428 0.324-8.54 1.104-12.47 2.299l0.402-0.105c-1.153-0.15-2.486-0.235-3.84-0.235s-2.687 0.085-3.995 0.251l0.155-0.016c-7.436 2.885-13.776 7.11-19.010 12.427l-0.007 0.007-457.143 473.234c-9.679 10.097-15.639 23.827-15.639 38.949s5.959 28.851 15.658 38.968l-0.019-0.020c9.527 9.882 22.881 16.019 37.669 16.019s28.141-6.137 37.653-16.004l0.015-0.016 420.571-435.931z" />
<glyph unicode="&#xe902;" glyph-name="edit_shouqi" d="M512-64c282.77 0 512 229.23 512 512s-229.23 512-512 512c-282.77 0-512-229.23-512-512v0c0-282.77 229.23-512 512-512v0zM200.777 759.223c79.385 79.227 188.971 128.219 309.999 128.219 242.374 0 438.857-196.483 438.857-438.857s-196.483-438.857-438.857-438.857c-242.374 0-438.857 196.483-438.857 438.857 0 61.594 12.689 120.225 35.596 173.42l-1.092-2.85c23.314 54.455 55.151 100.944 94.347 140.062l0.007 0.007zM256 311.589c0.074-0.001 0.161-0.001 0.248-0.001 10.744 0 20.477 4.33 27.549 11.341l-0.003-0.003 228.206 229.303 227.84-228.206c7.16-7.16 17.051-11.589 27.977-11.589 21.852 0 39.566 17.714 39.566 39.566 0 10.926-4.429 20.817-11.589 27.977v0l-256 256c-7.078 7.199-16.911 11.67-27.788 11.703h-0.006c-0.118 0.001-0.258 0.002-0.398 0.002-10.697 0-20.383-4.333-27.397-11.34v0l-257.829-256c-7.012-7.178-11.338-17.007-11.338-27.846 0-0.11 0-0.221 0.001-0.331v0.017c0.033-10.883 4.504-20.716 11.697-27.789l0.005-0.005c7.232-7.014 17.108-11.337 27.994-11.337 0.059 0 0.117 0 0.175 0h-0.009z" />
<glyph unicode="&#xe903;" glyph-name="edit_zhankai" d="M512 960c-282.77 0-512-229.23-512-512s229.23-512 512-512c282.77 0 512 229.23 512 512v0c0 282.77-229.23 512-512 512v0zM823.223 136.777c-79.358-79.068-188.836-127.952-309.732-127.952-242.374 0-438.857 196.483-438.857 438.857s196.483 438.857 438.857 438.857c242.374 0 438.857-196.483 438.857-438.857 0-61.836-12.789-120.685-35.866-174.046l1.095 2.844c-23.353-54.312-55.183-100.676-94.341-139.69l-0.013-0.013zM768 584.411c-0.074 0.001-0.161 0.001-0.248 0.001-10.744 0-20.477-4.33-27.549-11.341l0.003 0.003-228.206-229.303-228.937 228.206c-7.16 7.16-17.051 11.589-27.977 11.589-21.852 0-39.566-17.714-39.566-39.566 0-10.926 4.429-20.817 11.589-27.977l256-256c7.105-7.226 16.985-11.704 27.91-11.704 0.088 0 0.176 0 0.263 0.001h-0.013c0.118-0.001 0.258-0.002 0.398-0.002 10.697 0 20.383 4.333 27.397 11.34v0l257.829 256c7.012 7.178 11.338 17.007 11.338 27.846 0 0.11 0 0.221-0.001 0.331v-0.017c-0.033 10.883-4.504 20.716-11.697 27.789l-0.005 0.005c-7.232 7.014-17.108 11.337-27.994 11.337-0.059 0-0.117 0-0.175 0h0.009z" />
<glyph unicode="&#xe904;" glyph-name="form_bangding" d="M594.581 184.155c-0.018 0.495-0.029 1.076-0.029 1.659 0 26.453 21.444 47.897 47.897 47.897 0.3 0 0.6-0.003 0.899-0.008l-0.045 0.001c0.125 0.001 0.272 0.002 0.42 0.002 26.909 0 48.723-21.814 48.723-48.723 0-0.291-0.003-0.581-0.008-0.871l0.001 0.044v-165.161c0-45.608-36.973-82.581-82.581-82.581v0h-527.277c-45.608 0-82.581 36.973-82.581 82.581v0 511.587c0 56.981 20.645 99.923 82.581 99.923h528.516c43.768 0 82.581-28.077 82.581-99.923v-82.581c0.011-0.378 0.017-0.822 0.017-1.268 0-26.225-21.259-47.484-47.484-47.484-0.587 0-1.171 0.011-1.753 0.032l0.084-0.002c-1.135-0.099-2.457-0.156-3.791-0.156-25.54 0-46.245 20.705-46.245 46.245 0 0.926 0.027 1.846 0.081 2.759l-0.006-0.126v82.581h-495.484v-495.484h495.484zM429.419 712.671c-0.456-27.179-22.369-49.092-49.505-49.548l-0.043-0.001c-0.248-0.005-0.54-0.007-0.833-0.007-26.909 0-48.723 21.814-48.723 48.723 0 0.293 0.003 0.585 0.008 0.877l-0.001-0.044v165.161c0 45.608 36.973 82.581 82.581 82.581v0h528.516c45.608 0 82.581-36.973 82.581-82.581v0-528.516c0-45.608-36.973-82.581-82.581-82.581v0h-545.032c-36.335 0-66.065 45.832-66.065 82.581v98.684c-0.001 0.123-0.002 0.269-0.002 0.415 0 27.137 21.999 49.135 49.135 49.135 0.146 0 0.291-0.001 0.437-0.002h-0.022c27.271-0.232 49.317-22.277 49.548-49.526v-82.603h495.484v495.484h-495.484z" />
<glyph unicode="&#xe905;" glyph-name="form_daimabianji" d="M891.259 922.074h-773.31c-65.457-1.485-117.952-54.9-117.952-120.575 0-0.277 0.001-0.554 0.003-0.83v0.042-690.252c-0.006-0.455-0.010-0.993-0.010-1.532 0-65.526 52.587-118.769 117.86-119.83l0.1-0.001h773.31c64.918 0.839 117.221 53.661 117.221 118.699 0 0.937-0.011 1.871-0.032 2.803l0.003-0.139v690.252c0.001 0.13 0.001 0.284 0.001 0.439 0 65.484-52.026 118.817-116.999 120.919l-0.193 0.005zM117.95 842.43h773.31c22.154-1.723 39.652-19.483 40.954-41.598l0.006-0.121v-110.744h-854.471v110.744c0.925 22.139 18.22 39.96 40.048 41.709l0.153 0.010zM891.259 67.603h-773.31c-21.901 2.775-38.857 20.644-40.195 42.728l-0.006 0.128v501.001h854.471v-501.001c-1.558-22.374-18.808-40.276-40.744-42.836l-0.216-0.021zM800.237 319.052c4.948 4.708 8.026 11.343 8.026 18.697 0 0.628-0.022 1.25-0.066 1.866l0.005-0.083c0.004 0.142 0.006 0.309 0.006 0.477 0 6.35-3.121 11.972-7.914 15.413l-0.057 0.039-125.156 124.018c-6.009 5.867-14.236 9.487-23.307 9.487-0.206 0-0.412-0.002-0.617-0.006h0.031c-0.689 0.067-1.489 0.106-2.298 0.106-7.973 0-15.075-3.727-19.658-9.534l-0.040-0.053c-3.191-4.412-5.104-9.931-5.104-15.896 0-9.012 4.366-17.004 11.097-21.977l0.075-0.053 103.917-99.745-103.538-102.779c-4.25-4.477-6.864-10.543-6.864-17.219 0-0.48 0.014-0.957 0.040-1.43l-0.003 0.066c-0.002-0.149-0.004-0.325-0.004-0.501 0-7.683 2.567-14.767 6.891-20.441l-0.060 0.082c5.167-5.524 12.372-9.085 20.41-9.479l0.070-0.003c0.798-0.081 1.724-0.126 2.661-0.126 7.686 0 14.65 3.089 19.718 8.094l-0.003-0.003zM519.964 473.41l-91.401-235.899c-1.623-3.389-2.571-7.368-2.571-11.567s0.948-8.178 2.642-11.732l-0.071 0.165c3.417-7.449 9.431-13.217 16.856-16.232l0.211-0.076c3.402-1.553 7.379-2.458 11.567-2.458s8.165 0.905 11.746 2.531l-0.179-0.073c7.427 3.45 13.183 9.452 16.231 16.855l0.077 0.212 91.022 235.899c1.576 3.398 2.495 7.375 2.495 11.567s-0.919 8.169-2.567 11.742l0.072-0.174c-3.384 7.473-9.409 13.252-16.857 16.234l-0.21 0.074c-3.398 1.576-7.375 2.495-11.567 2.495s-8.169-0.919-11.742-2.567l0.174 0.072c-7.335-3.608-12.97-9.735-15.855-17.228l-0.074-0.218zM376.984 485.547c-5.61 5.032-13.063 8.11-21.235 8.11-1.069 0-2.127-0.053-3.169-0.156l0.132 0.011c-0.157 0.003-0.342 0.005-0.527 0.005-7.432 0-14.188-2.888-19.209-7.604l0.015 0.014-123.639-124.776c-4.59-4.323-7.568-10.313-7.961-16.997l-0.003-0.069c-0.018-0.35-0.028-0.759-0.028-1.172 0-7.183 3.072-13.649 7.975-18.155l0.018-0.016 124.776-124.018c4.777-4.766 11.312-7.772 18.548-7.964l0.036-0.001c0.299-0.008 0.65-0.013 1.003-0.013 8.808 0 16.915 3.003 23.353 8.040l-0.083-0.063c4.959 4.769 8.040 11.461 8.040 18.872 0 0.699-0.027 1.392-0.081 2.078l0.006-0.091c-0.192 7.272-3.199 13.806-7.965 18.584l0.001-0.001-103.917 101.641 103.538 102.779c4.671 4.656 7.567 11.090 7.585 18.201v0.003c0.077 0.808 0.121 1.746 0.121 2.695 0 7.728-2.926 14.772-7.73 20.086l0.023-0.026z" />
<glyph unicode="&#xe906;" glyph-name="form_edit" d="M978.286 27.429h-932.571c-25.247 0-45.714-20.467-45.714-45.714s20.467-45.714 45.714-45.714v0h932.571c25.247 0 45.714 20.467 45.714 45.714s-20.467 45.714-45.714 45.714v0zM275.749 164.571c6.895 0.134 13.411 1.6 19.353 4.151l-0.336-0.128 259.657 122.149h2.56l442.514 443.611c14.504 14.44 23.48 34.423 23.48 56.503s-8.975 42.063-23.477 56.5l-89.237 89.237c-14.481 14.416-34.451 23.328-56.503 23.328s-42.022-8.912-56.506-23.331l-440.683-440.683v-2.56l-124.343-260.389c-3-6.029-4.756-13.131-4.756-20.643 0-9.599 2.867-18.529 7.791-25.979l-0.109 0.176c8.738-13.422 23.629-22.2 40.578-22.308h0.016zM800.549 810.789l53.029 53.029 73.143-73.143-53.029-53.029-73.143 73.143zM365.714 301.714l64.731 137.874 305.006 305.371 73.143-73.143-305.006-305.371-137.874-64.731z" />
<glyph unicode="&#xe907;" glyph-name="form_fuzhi" d="M631.467 177.431h-302.205c-1.025-0.044-2.227-0.069-3.435-0.069-47.358 0-85.75 38.391-85.75 85.75 0 1.488 0.038 2.968 0.113 4.438l-0.008-0.206v603.161c-0.006 0.374-0.009 0.816-0.009 1.258 0 48.738 39.51 88.247 88.247 88.247 0.442 0 0.884-0.003 1.324-0.010l-0.067 0.001h603.161c0.747 0.023 1.625 0.035 2.507 0.035 48.967 0 88.663-39.696 88.663-88.663 0-0.452-0.003-0.902-0.010-1.352l0.001 0.068q0-222.699 0-444.982 0-78.673 0-157.346c0.019-0.68 0.030-1.48 0.030-2.283 0-44.621-33.432-81.433-76.614-86.754l-0.424-0.043h-12.904zM903.701 263.597c2.996-0.315 6.472-0.495 9.99-0.495s6.995 0.18 10.42 0.53l-0.43-0.036c3.746 0 9.574 2.914 10.407 9.158 0.303 3.924 0.476 8.498 0.476 13.112s-0.173 9.188-0.513 13.715l0.036-0.603q0 268.904 0 538.224c0 7.076 0 14.569 0 21.646s-4.995 12.072-9.99 12.488-12.904 0-19.564 0h-547.382c-3.246 0.358-7.011 0.562-10.823 0.562s-7.576-0.204-11.283-0.602l0.46 0.040c-5.828 0-7.909-4.579-7.909-7.076s0-18.732-2.081-28.306q0-267.655 0-534.894c0-7.076 0-14.569 0-21.646-0.036-0.374-0.057-0.809-0.057-1.249 0-7.587 6.15-13.737 13.737-13.737 0.020 0 0.040 0 0.060 0h564.446zM89.080-64c-0.25-0.003-0.546-0.004-0.841-0.004-48.738 0-88.247 39.51-88.247 88.247 0 0.44 0.003 0.88 0.010 1.319l-0.001-0.066q0 302.205 0 604.41c-0.032 0.88-0.051 1.914-0.051 2.952 0 47.588 38.578 86.166 86.166 86.166 0.896 0 1.789-0.014 2.678-0.041l-0.13 0.003h74.094c0.622 0.033 1.349 0.052 2.081 0.052 22.989 0 41.626-18.637 41.626-41.626 0-0.018 0-0.037 0-0.055v0.003c0.022-0.517 0.034-1.124 0.034-1.734 0-23.502-18.375-42.713-41.542-44.049l-0.118-0.005h-60.358c-14.569-2.081-13.737-4.579-14.569-11.655-0.256-3.363-0.402-7.284-0.402-11.239s0.146-7.876 0.433-11.758l-0.031 0.519c0-178.159 0-343.415 0-521.99-0.295-4.047-0.463-8.768-0.463-13.528s0.168-9.481 0.499-14.157l-0.036 0.629c0-12.904 0-21.229 10.823-20.813s13.737 0 20.813 0h542.803c6.244 0 0 0 4.995 0 0.277-0.012 0.601-0.018 0.927-0.018 12.874 0 23.311 10.436 23.311 23.311 0 0.739-0.034 1.47-0.102 2.192l0.007-0.092c0 18.315 0 17.067 0 41.626 0.696 24.295 20.557 43.725 44.956 43.725 24.838 0 44.973-20.135 44.973-44.973 0-0.439-0.006-0.877-0.019-1.313l0.001 0.064c0-24.976 0-41.626 0-63.688-1.183-38.797-25.578-71.61-59.718-85.11l-0.64-0.223c-8.421-2.382-18.091-3.752-28.082-3.752-0.371 0-0.742 0.002-1.113 0.006h-604.769zM574.023 518.764h-141.112c-17.899 0-33.301 26.224-35.382 41.626s8.325 47.037 26.224 51.616c1.625 0.212 3.504 0.333 5.411 0.333s3.787-0.121 5.63-0.356l-0.219 0.023h146.107v10.823c0 46.621 0 94.075 0 140.696 0 21.646 27.057 37.463 47.87 37.463s49.951-15.818 49.951-37.047c0-46.621 0-94.075 0-140.696v-8.741h150.27c17.483 0 32.468-24.143 34.966-41.626s-7.493-47.87-24.559-52.865c-1.751-0.261-3.772-0.41-5.828-0.41s-4.077 0.149-6.053 0.437l0.225-0.027h-149.021v-6.66c0-47.037 0-94.075 0-141.112 0-15.402-17.067-27.889-31.22-34.133-5.42-2.092-11.691-3.304-18.246-3.304-12.929 0-24.756 4.715-33.857 12.52l0.070-0.059c-6.244 5.828-15.402 14.153-15.402 24.976 0 47.454 0 94.491 0 141.528v6.244z" />
<glyph unicode="&#xe908;" glyph-name="form_huifu" d="M573.061 922.074c258.276 0 458.524-223.384 458.524-477.867s-199.49-477.867-458.524-477.867c-144.891 0.909-273.457 70.012-355.332 176.797l-0.792 1.076c-5.672 7.2-9.098 16.4-9.098 26.401 0 12.908 5.707 24.483 14.735 32.34l0.052 0.044c7.33 6.976 17.272 11.268 28.215 11.268 14.092 0 26.522-7.117 33.892-17.952l0.091-0.143c66.727-87.734 171.090-143.865 288.575-144.118h0.041c206.764 3.503 373.033 171.938 373.033 379.208 0 4.553-0.080 9.087-0.239 13.601l0.018-0.655c0.050 2.301 0.078 5.012 0.078 7.73 0 208.266-165.881 377.788-372.728 383.653l-0.541 0.012c-192.664 0-329.956-151.704-365.606-311.751l55.372 46.649c6.268 4.029 13.92 6.423 22.131 6.423 12.509 0 23.72-5.556 31.3-14.334l0.045-0.053c6.757-7.44 10.895-17.366 10.895-28.259 0-12.4-5.361-23.548-13.892-31.252l-0.037-0.033-130.086-113.778c-7.424-5.914-16.941-9.488-27.292-9.488-0.272 0-0.543 0.002-0.814 0.007l0.041-0.001c-0.345-0.012-0.75-0.019-1.156-0.019-10.128 0-19.269 4.223-25.759 11.004l-0.012 0.013-120.225 133.12c-5.048 6.942-8.076 15.638-8.076 25.040 0 12.426 5.288 23.617 13.737 31.444l0.028 0.025c7.56 7.612 18.031 12.323 29.603 12.323 9.766 0 18.748-3.356 25.856-8.977l-0.088 0.067 53.096-59.923c32.996 202.145 192.664 398.222 450.939 398.222zM578.37 444.207h209.351c20.946 0 37.926-16.98 37.926-37.926s-16.98-37.926-37.926-37.926v0h-209.351c-35.432 3.43-62.907 33.056-62.907 69.1 0 2.378 0.12 4.728 0.353 7.044l-0.024-0.292v189.63c-0.115 1.059-0.181 2.288-0.181 3.531 0 18.057 13.867 32.874 31.532 34.386l0.128 0.009c17.793-1.52 31.66-16.338 31.66-34.394 0-1.244-0.066-2.472-0.194-3.682l0.013 0.151z" />
<glyph unicode="&#xe909;" glyph-name="form_keshihuabianji" d="M511.606 54.154c21.752 0 39.385-17.633 39.385-39.385s-17.633-39.385-39.385-39.385v0h-361.945c-82.656 0-149.662 67.006-149.662 149.662v645.908c0 82.656 67.006 149.662 149.662 149.662v0h722.708c82.656 0 149.662-67.006 149.662-149.662v0-401.723c0-21.752-17.633-39.385-39.385-39.385s-39.385 17.633-39.385 39.385v0 401.723c0 39.153-31.74 70.892-70.892 70.892v0h-722.708c-39.153 0-70.892-31.74-70.892-70.892v0-645.908c0-39.153 31.74-70.892 70.892-70.892v0zM249.698 136.074c-4.411-1.931-9.545-3.083-14.941-3.151h-0.025c-13.309 0.348-24.935 7.247-31.811 17.578l-0.091 0.145c-3.636 5.852-5.791 12.953-5.791 20.557 0 5.82 1.262 11.345 3.528 16.317l-0.101-0.246 96.098 204.8v1.969l351.311 350.523c11.461 11.394 27.259 18.437 44.702 18.437s33.24-7.043 44.705-18.44l-0.003 0.003 70.498-70.892c11.394-11.461 18.437-27.259 18.437-44.702s-7.043-33.24-18.44-44.705l0.003 0.003-350.129-350.523h-1.969zM692.382 687.458l-41.748-42.535 57.895-57.895 41.748 42.142zM357.612 352.295l-51.2-109.489 109.095 51.594 241.822 241.822-57.895 57.895zM1024.788 146.708c4.107-9.228 7.885-20.253 10.725-31.649l0.302-1.434c-2.6-10.612-5.838-19.797-9.856-28.55l0.404 0.981c-6.945-17.753-15.698-33.094-26.323-46.92l0.329 0.446c-18.561-21.399-40.757-39.070-65.721-52.185l-1.233-0.59c-31.376-14.408-68.069-22.819-106.723-22.843h-0.009c-39.068 0.048-76.161 8.453-109.604 23.524l1.69-0.681c-24.678 12.573-45.496 29.238-62.375 49.323l-0.247 0.302c-11.298 14.802-21.196 31.654-28.944 49.649l-0.594 1.551c-3.53 7.374-6.635 16.034-8.86 25.042l-0.199 0.952c2.657 9.967 5.75 18.479 9.484 26.637l-0.425-1.037c9.555 22.445 21.453 41.796 35.763 59.077l-0.317-0.394c17.856 18.208 38.838 33.271 62.091 44.334l1.318 0.564c28.101 12.735 60.932 20.155 95.496 20.155 2.012 0 4.018-0.025 6.018-0.075l-0.296 0.006c1.704 0.044 3.71 0.069 5.722 0.069 34.564 0 67.395-7.421 96.987-20.756l-1.491 0.601c24.595-10.894 45.441-26.063 62.491-44.754l0.13-0.145c12.719-15.052 24.105-31.972 33.541-50.069l0.724-1.525zM979.102 113.625c-5.549 15.114-13.15 28.166-22.627 39.606l0.178-0.221c-11.603 15.916-26.693 28.609-44.196 37.108l-0.702 0.308c-23.61 12.211-51.536 19.371-81.134 19.371-1.8 0-3.593-0.026-5.38-0.079l0.262 0.006c-0.228 0.001-0.497 0.002-0.767 0.002-30.666 0-59.668-7.124-85.442-19.806l1.138 0.506c-19.406-9.067-35.46-22.47-47.412-39.030l-0.244-0.355c-8.305-10.512-14.895-22.832-19.081-36.215l-0.217-0.806c6.24-17.425 15.061-32.461 26.163-45.495l-0.169 0.203c12.159-14.912 27.449-26.795 44.911-34.737l0.775-0.316c21.412-10.253 46.543-16.242 73.074-16.242 2.003 0 3.998 0.034 5.984 0.102l-0.289-0.008c1.625-0.055 3.535-0.086 5.452-0.086 26.612 0 51.827 5.985 74.371 16.683l-1.053-0.45c18.502 8.528 34.12 20.363 46.725 34.884l0.143 0.168c12.28 12.454 22.251 27.224 29.193 43.589l0.345 0.916zM826.289 197.908c0.59 0.015 1.286 0.023 1.983 0.023 46.872 0 84.972-37.56 85.843-84.224l0.001-0.082c-2.579-46.429-40.857-83.102-87.7-83.102-0.045 0-0.089 0-0.134 0h0.007c-46.113 0-83.495 37.382-83.495 83.495s37.382 83.495 83.495 83.495v0zM858.978 113.625c0.014 0.334 0.022 0.725 0.022 1.118 0 8.45-3.646 16.049-9.45 21.309l-0.024 0.022c-5.277 4.752-12.297 7.659-19.996 7.659-1.142 0-2.268-0.064-3.377-0.188l0.136 0.012c-0.69 0.057-1.494 0.090-2.306 0.090-7.606 0-14.54-2.875-19.776-7.596l0.026 0.023c-5.883-5.607-9.541-13.502-9.541-22.252s3.658-16.645 9.529-22.241l0.012-0.012c4.492-5.028 10.996-8.178 18.235-8.178 1.349 0 2.672 0.109 3.962 0.32l-0.141-0.019c0.443-0.021 0.961-0.032 1.483-0.032 8.306 0 15.913 2.99 21.805 7.951l-0.051-0.042c5.827 4.944 9.5 12.273 9.5 20.46 0 0.561-0.017 1.119-0.051 1.672l0.004-0.076z" />
<glyph unicode="&#xe90a;" glyph-name="form_paixu" horiz-adv-x="878" d="M298.423 932.571c2.312-5.238 3.657-11.345 3.657-17.767 0-0.054 0-0.108 0-0.161v0.008-933.303c-2.164-23.428-21.722-41.63-45.531-41.63s-43.367 18.202-45.518 41.449l-0.013 0.18v823.223l-133.486-132.754c-8.258-8.188-19.63-13.248-32.183-13.248s-23.925 5.060-32.186 13.251l0.003-0.003c-8.256 8.159-13.369 19.482-13.369 32s5.113 23.841 13.364 31.996l0.004 0.004 211.383 211.017 5.851 4.754c3.159 2.321 6.783 4.295 10.661 5.749l0.31 0.102c4.569 1.681 9.845 2.654 15.349 2.654 12.559 0 23.935-5.064 32.197-13.262l-0.003 0.003c3.948-3.992 7.156-8.724 9.397-13.969l0.111-0.294zM864.549 224.183c8.256-8.159 13.369-19.482 13.369-32s-5.113-23.841-13.364-31.996l-211.021-211.021-5.851-5.12c-3.158-2.186-6.786-4.042-10.653-5.389l-0.318-0.097c-4.569-1.681-9.845-2.654-15.349-2.654-12.559 0-23.935 5.064-32.197 13.262l0.003-0.003c-8.136 8.14-13.167 19.382-13.167 31.8 0 0.135 0.001 0.269 0.002 0.404v-0.021 933.303c2.164 23.428 21.722 41.63 45.531 41.63s43.367-18.202 45.518-41.449l0.013-0.18v-823.223l133.486 132.754c8.239 8.080 19.537 13.068 32 13.068s23.761-4.987 32.007-13.075l-0.007 0.007z" />
<glyph unicode="&#xe90b;" glyph-name="form_shanchu" d="M977.455 814.017h-203.531v61.779c0 0.015 0 0.034 0 0.052 0 46.739-37.889 84.628-84.628 84.628-1.042 0-2.079-0.019-3.111-0.056l0.149 0.004h-348.668c-1.925 0.162-4.166 0.255-6.429 0.255-44.869 0-81.243-36.374-81.243-81.243 0-1.28 0.030-2.554 0.088-3.819l-0.007 0.179v-61.779h-206.069c-23.369 0-42.314-18.945-42.314-42.314v0c-0.049-0.759-0.076-1.646-0.076-2.539 0-23.369 18.945-42.314 42.314-42.314 0.027 0 0.054 0 0.080 0h32.155v-706.645c0-46.739 37.889-84.628 84.628-84.628v0h714.684c46.739 0 84.628 37.889 84.628 84.628v0 704.952h23.273c23.586 1.593 42.137 21.028 42.314 44.835v0.018c0.005 0.234 0.007 0.51 0.007 0.786 0 12.649-5.55 24.002-14.348 31.755l-0.046 0.040c-8.145 7.163-18.897 11.534-30.67 11.534-1.119 0-2.23-0.040-3.329-0.117l0.148 0.008zM685.488 871.14v-57.124h-348.245v57.124zM163.755 24.86v700.298h707.491v-700.298zM466.724 556.324v-388.020c2.291-22.828 21.402-40.502 44.641-40.502s42.351 17.674 44.626 40.313l0.015 0.188v387.174c-2.291 22.828-21.402 40.502-44.641 40.502s-42.351-17.674-44.626-40.313l-0.015-0.188zM246.268 556.324v-388.020c2.291-22.828 21.402-40.502 44.641-40.502s42.351 17.674 44.626 40.313l0.015 0.188v387.174c-2.291 22.828-21.402 40.502-44.641 40.502s-42.351-17.674-44.626-40.313l-0.015-0.188zM685.064 556.324v-388.020c2.291-22.828 21.402-40.502 44.641-40.502s42.351 17.674 44.626 40.313l0.015 0.188v387.174c-2.291 22.828-21.402 40.502-44.641 40.502s-42.351-17.674-44.626-40.313l-0.015-0.188z" />
<glyph unicode="&#xe90c;" glyph-name="form_tishi" d="M512 960c-282.77 0-512-229.23-512-512s229.23-512 512-512c282.77 0 512 229.23 512 512v0c0 282.77-229.23 512-512 512v0zM823.223 136.777c-78.887-76.469-186.593-123.607-305.307-123.607-242.374 0-438.857 196.483-438.857 438.857 0 178.291 106.319 331.75 259.015 400.434l2.772 1.115c52.111 23.572 112.986 37.308 177.070 37.308 242.374 0 438.857-196.483 438.857-438.857 0-123.659-51.145-235.372-133.436-315.141l-0.114-0.11zM630.491 254.171h-85.577v350.354c0 20.198-16.374 36.571-36.571 36.571v0h-95.451c-20.198 0-36.571-16.374-36.571-36.571v0 0c0-20.198 16.374-36.571 36.571-36.571v0h59.977v-314.149h-85.211c-20.198 0-36.571-16.374-36.571-36.571v0 0c0-20.198 16.374-36.571 36.571-36.571v0h242.469c20.198 0 36.571 16.374 36.571 36.571v0 0c0 20.198-16.374 36.571-36.571 36.571v0zM472.869 740.571c0 20.198 16.374 36.571 36.571 36.571s36.571-16.374 36.571-36.571c0-20.198-16.374-36.571-36.571-36.571v0c-20.198 0-36.571 16.374-36.571 36.571v0z" />
<glyph unicode="&#xe90d;" glyph-name="form_yulan" d="M1024 448c-6.517 26.156-14.656 48.807-24.755 70.358l0.983-2.335c-19.186 45.547-42.751 84.841-70.997 120.234l0.78-1.011c-42.29 51.432-94.462 93.079-153.813 122.4l-2.713 1.212c-73.182 34.71-159.005 54.977-249.562 54.977-4.192 0-8.375-0.043-12.546-0.13l0.623 0.010c-3.346 0.068-7.291 0.107-11.245 0.107-90.824 0-176.883-20.399-253.846-56.866l3.605 1.536c-62.101-30.269-114.372-71.547-156.287-121.77l-0.604-0.745c-27.333-34.486-50.783-73.905-68.612-116.271l-1.239-3.318c-9.17-19.346-17.315-42.126-23.223-65.792l-0.549-2.597c6.513-26.298 14.654-49.074 24.76-70.751l-0.989 2.362c19.247-45.541 42.806-84.829 71.010-120.254l-0.793 1.031c42.436-51.179 94.726-92.592 154.153-121.67l2.738-1.21c73.429-34.924 159.563-55.318 250.46-55.318 3.748 0 7.489 0.035 11.22 0.104l-0.56-0.008c3.323-0.067 7.241-0.105 11.167-0.105 90.85 0 176.936 20.399 253.927 56.865l-3.608-1.538c62.127 30.361 114.404 71.761 156.277 122.12l0.614 0.76c27.467 34.383 51.031 73.677 68.976 115.933l1.241 3.289c9.024 19.325 17.048 42.115 22.862 65.774l0.543 2.614zM939.886 448c-17.881-52.869-42.714-98.714-73.971-139.361l0.828 1.121c-35.144-42.313-78.408-76.571-127.559-100.664l-2.27-1.005c-63.020-29.848-136.917-47.275-214.884-47.275-3.527 0-7.046 0.036-10.556 0.107l0.525-0.008c-3.212-0.072-6.996-0.114-10.79-0.114-77.673 0-151.306 17.296-217.259 48.247l3.134-1.322c-51.448 25.045-94.721 59.312-129.317 101.034l-0.511 0.634c-30.462 39.628-55.3 85.599-72.156 135.256l-0.987 3.349c17.907 52.999 42.739 98.962 73.986 139.751l-0.843-1.146c35.031 42.414 78.171 76.783 127.209 101.027l2.254 1.008c62.823 29.634 136.462 46.933 214.141 46.933 3.917 0 7.823-0.044 11.719-0.131l-0.58 0.010c3.371 0.080 7.343 0.126 11.325 0.126 77.492 0 150.943-17.302 216.7-48.254l-3.111 1.316c51.448-25.045 94.721-59.312 129.317-101.034l0.511-0.634c30.436-39.745 55.274-85.834 72.15-135.598l0.993-3.373zM512 639.269c-0.875 0.014-1.908 0.022-2.942 0.022-106.156 0-192.38-85.339-193.811-191.156l-0.001-0.135c2.644-104.994 88.386-189.097 193.771-189.097 1.049 0 2.096 0.008 3.141 0.025l-0.158-0.002c0.778-0.011 1.697-0.018 2.618-0.018 105.383 0 191.123 84.101 193.766 188.847l0.005 0.245c-1.434 105.949-87.657 191.286-193.812 191.286-0.906 0-1.811-0.006-2.714-0.019l0.137 0.001zM627.566 448c-0.122-31.066-13.137-59.069-33.969-78.954l-0.043-0.040c-21.184-20.328-49.999-32.845-81.737-32.845s-60.554 12.517-81.778 32.884l0.041-0.039c-20.826 20-33.766 48.078-33.766 79.177s12.939 59.177 33.728 79.142l0.037 0.035c21.184 20.328 49.999 32.845 81.737 32.845s60.554-12.517 81.778-32.884l-0.041 0.039c20.96-20.008 33.996-48.16 34.011-79.357v-0.003z" />
<glyph unicode="&#xe90e;" glyph-name="form_zengjia" d="M976.457 496.64h-421.303v415.086c0.001 0.109 0.001 0.237 0.001 0.366 0 26.459-21.449 47.909-47.909 47.909 0 0-0.001 0-0.001 0v0c-26.302-0.206-47.544-21.576-47.544-47.907 0-0.129 0.001-0.258 0.002-0.387v0.020-415.086h-412.16c-26.304-0.204-47.548-21.575-47.548-47.907 0-0.258 0.002-0.515 0.006-0.772v0.039c0.205-26.174 21.369-47.337 47.523-47.543h412.18v-416.183c-0.001-0.109-0.001-0.238-0.001-0.367 0-26.331 21.242-47.701 47.525-47.907h0.020c26.302 0.206 47.544 21.576 47.544 47.907 0 0.129-0.001 0.258-0.002 0.387v-0.020 416.183h421.669c26.174 0.205 47.337 21.369 47.543 47.523v0.020c0.001 0.109 0.001 0.238 0.001 0.367 0 26.331-21.242 47.701-47.525 47.907h-0.020z" />
<glyph unicode="&#xe90f;" glyph-name="menu_fanhuishangji" d="M805.547 346.027c-88.693 38.81-191.835 62.557-300.202 65.26l-1.025 0.020c-0.381 0.011-0.83 0.017-1.28 0.017-25.921 0-46.933-21.013-46.933-46.933 0-0.006 0-0.012 0-0.018v0.001-128l-354.133 243.627 354.133 243.2v-139.093c-0.006-0.283-0.010-0.616-0.010-0.95 0-24.166 18.777-43.947 42.537-45.549l0.14-0.008h14.080c46.507-3.413 250.453-20.053 366.507-159.573 32.758-44.466 59.942-95.754 78.997-150.837l1.217-4.043c-41.898 50.671-93.153 91.973-151.334 121.634l-2.692 1.246zM664.747 596.907c-36.511 9.783-79.227 16.774-123.092 19.53l-1.922 0.097v170.667c0.003 0.187 0.005 0.408 0.005 0.63 0 14.83-7.566 27.893-19.048 35.539l-0.156 0.098c-7.241 5.142-16.26 8.22-25.999 8.22-11.887 0-22.704-4.586-30.776-12.086l0.028 0.026-450.56-309.333c-8.167-7.155-13.296-17.605-13.296-29.252 0-0.817 0.025-1.627 0.075-2.431l-0.005 0.11c0-0.021 0-0.045 0-0.069 0-13.146 5.945-24.903 15.293-32.73l0.067-0.054 453.973-311.467c8.010-4.303 17.527-6.831 27.634-6.831 7.55 0 14.77 1.411 21.411 3.983l-0.405-0.138c12.858 8.778 21.305 23.196 21.759 39.612l0.001 0.068v157.867c151.467-11.52 258.987-48.64 336.64-128 35.484-34.186 62.016-77.425 75.886-126.004l0.487-1.996c3.413-16.64 25.6-26.453 42.667-26.453h3.413c22.294 0.971 40.301 18.095 42.649 39.909l0.017 0.198c0 164.693-45.653 292.693-139.947 384-64.303 60.271-144.326 104.538-233.244 125.995l-3.556 0.725z" />
<glyph unicode="&#xe910;" glyph-name="menu_mianbaoxie" d="M49.562 737.997h906.854c27.677 0.428 50.083 22.405 51.197 49.869l0.003 0.102c-1.341 27.304-23.711 48.959-51.181 49.152h-906.873c-0.368 0.010-0.801 0.016-1.236 0.016-26.693 0-48.333-21.639-48.333-48.333 0-0.294 0.003-0.587 0.008-0.879l-0.001 0.044c-0.004-0.244-0.007-0.532-0.007-0.821 0-27.146 22.006-49.152 49.152-49.152 0.146 0 0.293 0.001 0.439 0.002h-0.022zM956.416 506.163h-906.854c-0.631 0.030-1.371 0.047-2.114 0.047-26.241 0-47.514-21.273-47.514-47.514 0-0.881 0.024-1.756 0.071-2.626l-0.005 0.121c-0.018-0.493-0.028-1.073-0.028-1.655 0-26.693 21.639-48.333 48.333-48.333 0.442 0 0.883 0.006 1.322 0.018l-0.065-0.001h906.854c0.124-0.001 0.27-0.002 0.416-0.002 27.763 0 50.324 22.276 50.783 49.93l0.001 0.043c-0.223 27.428-22.51 49.577-49.97 49.577-0.433 0-0.864-0.005-1.294-0.016l0.064 0.001zM956.416 174.797h-906.854c-0.122 0.001-0.266 0.002-0.41 0.002-27.146 0-49.152-22.006-49.152-49.152 0-0.001 0-0.001 0-0.002v0c-0.001-0.122-0.002-0.267-0.002-0.411 0-27.455 22.141-49.738 49.541-49.969h906.876c0.244-0.004 0.532-0.007 0.821-0.007 27.683 0 50.151 22.327 50.379 49.956v0.022c-0.217 27.207-22.322 49.179-49.56 49.179-0.577 0-1.151-0.010-1.723-0.029l0.083 0.002z" />
<glyph unicode="&#xe911;" glyph-name="TimePicker_riqi" d="M356.937 757.029h315.977v83.017h-315.977zM832.366 757.029h81.92c0.226 0.005 0.492 0.007 0.758 0.007 22.218 0 40.229-18.011 40.229-40.229 0-0.517-0.010-1.032-0.029-1.544l0.002 0.074v-618.057c0.017-0.438 0.027-0.953 0.027-1.47 0-22.218-18.011-40.229-40.229-40.229-0.267 0-0.533 0.003-0.798 0.008l0.040-0.001h-797.257c-0.226-0.005-0.492-0.007-0.758-0.007-22.218 0-40.229 18.011-40.229 40.229 0 0.517 0.010 1.032 0.029 1.544l-0.002-0.074v618.057c-0.017 0.438-0.027 0.953-0.027 1.47 0 22.218 18.011 40.229 40.229 40.229 0.267 0 0.533-0.003 0.798-0.008l-0.040 0.001h81.92v83.017h-81.92c-65.020-1.583-117.124-54.667-117.124-119.921 0-1.684 0.035-3.359 0.103-5.026l-0.008 0.239v-618.057c-0.004-0.378-0.007-0.825-0.007-1.272 0-65.955 51.656-119.846 116.718-123.422l0.317-0.014h789.943c65.020 1.583 117.124 54.667 117.124 119.921 0 1.684-0.035 3.359-0.103 5.026l0.008-0.239v618.057c0.004 0.378 0.007 0.825 0.007 1.272 0 65.955-51.656 119.846-116.718 123.422l-0.317 0.014h-81.92v-83.017zM239.909 881.737c0 22.622 18.338 40.96 40.96 40.96s40.96-18.338 40.96-40.96v0-166.4c0-22.622-18.338-40.96-40.96-40.96s-40.96 18.338-40.96 40.96v0zM715.337 881.737c0 22.622 18.338 40.96 40.96 40.96s40.96-18.338 40.96-40.96v0-166.4c0-22.622-18.338-40.96-40.96-40.96s-40.96 18.338-40.96 40.96v0zM239.909 513.463c-0.017 0.438-0.027 0.953-0.027 1.47 0 22.218 18.011 40.229 40.229 40.229 0.267 0 0.533-0.003 0.798-0.008l-0.040 0.001h475.429c23.026 0 41.691-18.666 41.691-41.691s-18.666-41.691-41.691-41.691h-475.429c-0.226-0.005-0.492-0.007-0.758-0.007-22.218 0-40.229 18.011-40.229 40.229 0 0.517 0.010 1.032 0.029 1.544l-0.002-0.074zM239.909 305.371c-0.017 0.438-0.027 0.953-0.027 1.47 0 22.218 18.011 40.229 40.229 40.229 0.267 0 0.533-0.003 0.798-0.008l-0.040 0.001h475.429c23.026 0 41.691-18.666 41.691-41.691s-18.666-41.691-41.691-41.691h-475.429c-0.226-0.005-0.492-0.007-0.758-0.007-22.218 0-40.229 18.011-40.229 40.229 0 0.517 0.010 1.032 0.029 1.544l-0.002-0.074z" />
<glyph unicode="&#xe912;" glyph-name="TimePicker_shijian" d="M512-64c-282.77 0-512 229.23-512 512s229.23 512 512 512c282.77 0 512-229.23 512-512v0c0-282.77-229.23-512-512-512v0zM512 883.2c-240.354 0-435.2-194.846-435.2-435.2s194.846-435.2 435.2-435.2c240.354 0 435.2 194.846 435.2 435.2v0c0 240.354-194.846 435.2-435.2 435.2v0zM758.491 382.537h-258.926c-14.707 0.58-26.483 12.356-27.061 27.009l-0.002 0.054v311.954c0 14.542 11.789 26.331 26.331 26.331v0h25.966c14.542 0 26.331-11.789 26.331-26.331v0-260.754h207.726c0.11 0.002 0.239 0.003 0.368 0.003 14.34 0 25.966-11.625 25.966-25.966 0-0.129-0.001-0.259-0.003-0.388v0.019-25.966c0-14.542-11.789-26.331-26.331-26.331v0z" />
<glyph unicode="&#xe913;" glyph-name="dongtai_fabuyingyong" d="M413.808 330.17l423.978 400.833-318.773-611.945s-77.151 150.795-105.205 211.112zM779.923 769.929l-414.86-389.26-180.603 105.205zM0 487.277s327.189-196.734 325.786-194.981 193.227-356.296 193.227-356.296 494.115 957.37 501.83 972.8c3.986 5.614 6.372 12.607 6.372 20.157 0 19.368-15.701 35.068-35.068 35.068-8.43 0-16.166-2.975-22.214-7.932l0.062 0.049z" />
<glyph unicode="&#xe914;" glyph-name="dongtai_hudongyingyong" horiz-adv-x="1027" d="M398.484 960c0 0-0.001 0-0.001 0-38.762 0-70.208-31.327-70.399-70.045v-233.113c0-0.001 0-0.002 0-0.003 0-38.509 31.218-69.726 69.726-69.726 0.237 0 0.473 0.001 0.71 0.004h235.753c38.287 0.379 69.201 31.412 69.389 69.708v233.113c0 0 0 0.001 0 0.001 0 38.695-31.368 70.063-70.063 70.063-0.118 0-0.237 0-0.355-0.001h0.018zM405.558 883.537h220.968v-219.958h-220.968zM398.484 308.547c-0.1 0.001-0.219 0.001-0.338 0.001-38.577 0-69.872-31.177-70.062-69.709v-233.113c-0.028-0.724-0.044-1.574-0.044-2.428 0-37.207 30.162-67.368 67.368-67.368 1.082 0 2.157 0.025 3.227 0.076l-0.151-0.006h235.789c0.402-0.008 0.876-0.013 1.351-0.013 38.137 0 69.053 30.916 69.053 69.053 0 0.241-0.001 0.483-0.004 0.724v-0.037 233.095c-0.191 38.55-31.486 69.727-70.062 69.727-0.119 0-0.237 0-0.356-0.001h0.018zM405.558 231.747h220.968v-219.621h-220.968zM192.337 327.074v-86.905c-68.632 35.355-114.756 105.722-114.756 186.862 0 26.79 5.028 52.406 14.192 75.955l-0.489-1.428c25.693 66.821 80.239 117.496 147.958 137.366l1.6 0.403c15.425 4.969 26.389 19.196 26.389 35.982 0 4.113-0.658 8.073-1.875 11.779l0.076-0.267c-5.093 15.641-19.544 26.746-36.589 26.746-3.765 0-7.403-0.542-10.84-1.551l0.272 0.068c-91.911-28.694-164.056-96.533-198.013-183.494l-0.724-2.106c-49.516-134.737-7.411-280.589 118.232-344.253h-96c-20.929 0-37.895-16.966-37.895-37.895s16.966-37.895 37.895-37.895v0h226.695v220.632c-0.185 21.015-17.076 38.024-38.028 38.4h-0.035c0 0-0.001 0-0.001 0-21.022 0-38.063-17.041-38.063-38.063 0-0.118 0.001-0.237 0.002-0.355v0.018zM892.968 637.305h94.653c21.022 0 38.063 17.041 38.063 38.063s-17.041 38.063-38.063 38.063v0h-228.379v-220.295c-0.107-1.077-0.168-2.328-0.168-3.593 0-21.208 17.192-38.4 38.4-38.4s38.4 17.192 38.4 38.4c0 1.265-0.061 2.516-0.181 3.749l0.012-0.157v89.6c68.123-35.333 113.866-105.323 113.866-185.996 0-25.855-4.698-50.612-13.288-73.465l0.475 1.44c-24.985-67.693-79.755-119.14-147.972-139.056l-1.586-0.397c-15.951-4.642-27.409-19.127-27.409-36.288 0-4.125 0.662-8.095 1.885-11.81l-0.076 0.267c5.251-15.368 19.567-26.222 36.418-26.222 3.951 0 7.762 0.597 11.349 1.705l-0.272-0.072c91.945 28.768 164.211 96.398 198.672 183.154l0.739 2.109c10.077 28.348 15.9 61.046 15.9 95.104 0 101.553-51.775 191.014-130.368 243.426l-1.068 0.67z" />
<glyph unicode="&#xe915;" glyph-name="dongtai_kuozhanyingyong" d="M453.203 454.606c-0.001 0.106-0.001 0.232-0.001 0.357 0 27.912 22.627 50.539 50.539 50.539 0.581 0 1.16-0.010 1.737-0.029l-0.084 0.002c0.295 0.006 0.643 0.010 0.992 0.010 28.164 0 51.017-22.741 51.199-50.862v-0.017c0-28.824-23.367-52.191-52.191-52.191s-52.191 23.367-52.191 52.191v0zM371.613 454.606c0-72.973 59.156-132.129 132.129-132.129v0c72.973 0 132.129 59.156 132.129 132.129s-59.156 132.129-132.129 132.129c-72.973 0-132.129-59.156-132.129-132.129v0zM453.203 147.737c0 28.824 23.367 52.191 52.191 52.191s52.191-23.367 52.191-52.191v0c0-28.824-23.367-52.191-52.191-52.191s-52.191 23.367-52.191 52.191v0zM371.613 147.737c0-73.976 59.97-133.946 133.946-133.946s133.946 59.97 133.946 133.946v0c0 73.976-59.97 133.946-133.946 133.946s-133.946-59.97-133.946-133.946v0zM453.203 761.476c-0.003 0.208-0.005 0.454-0.005 0.7 0 27.73 22.479 50.209 50.209 50.209 0.699 0 1.394-0.014 2.086-0.043l-0.099 0.003c0.493 0.017 1.072 0.027 1.653 0.027 27.912 0 50.539-22.627 50.539-50.539 0-0.126 0-0.251-0.001-0.377v0.019c0-28.824-23.367-52.191-52.191-52.191s-52.191 23.367-52.191 52.191v0zM371.613 761.476c0-72.973 59.156-132.129 132.129-132.129v0c73.304 0.175 132.813 58.989 134.109 132.007l0.002 0.122c0 73.976-59.97 133.946-133.946 133.946s-133.946-59.97-133.946-133.946v0zM824.815 454.606c-0.003 0.196-0.004 0.428-0.004 0.661 0 28.824 23.367 52.191 52.191 52.191s52.191-23.367 52.191-52.191c0-28.823-23.364-52.189-52.187-52.191v0c-0.196-0.003-0.428-0.004-0.661-0.004-28.459 0-51.53 23.071-51.53 51.53 0 0.001 0 0.003 0 0.004v0zM743.226 454.606c0-72.973 59.156-132.129 132.129-132.129v0c72.973 0 132.129 59.156 132.129 132.129s-59.156 132.129-132.129 132.129c-72.973 0-132.129-59.156-132.129-132.129v0zM82.581 761.476c0.886 27.731 23.139 49.984 50.787 50.868l0.083 0.002c0.295 0.006 0.643 0.010 0.992 0.010 28.164 0 51.017-22.741 51.199-50.862v-0.017c0.012-0.405 0.018-0.883 0.018-1.361 0-27.73-22.479-50.209-50.209-50.209-0.704 0-1.404 0.014-2.1 0.043l0.1-0.003c0 0-0.001 0-0.001 0-28.526 0-51.672 23.031-51.86 51.512v0.018zM0 761.476c0-72.973 59.156-132.129 132.129-132.129v0c0.589-0.009 1.285-0.015 1.982-0.015 72.973 0 132.129 59.156 132.129 132.129 0 0.005 0 0.010 0 0.016v-0.001c0 73.885-59.896 133.781-133.781 133.781s-133.781-59.896-133.781-133.781v0zM825.806 148.067c-0.003 0.196-0.004 0.428-0.004 0.661 0 28.824 23.367 52.191 52.191 52.191s52.191-23.367 52.191-52.191c0-28.823-23.364-52.189-52.187-52.191v0c-0.591-0.024-1.285-0.038-1.982-0.038-28.277 0-51.2 22.923-51.2 51.2 0 0.013 0 0.027 0 0.040v-0.002zM744.217 148.067c0-72.973 59.156-132.129 132.129-132.129v0c0.589-0.009 1.285-0.015 1.982-0.015 72.973 0 132.129 59.156 132.129 132.129 0 0.005 0 0.010 0 0.016v-0.001c0 73.976-59.97 133.946-133.946 133.946s-133.946-59.97-133.946-133.946v0zM83.572 148.067c0 0.005 0 0.011 0 0.017 0 28.095 22.775 50.87 50.87 50.87 0.465 0 0.928-0.006 1.389-0.019l-0.068 0.001c0.394 0.011 0.857 0.017 1.321 0.017 28.095 0 50.87-22.775 50.87-50.87 0-0.006 0-0.012 0-0.018v0.001c0-0.001 0-0.003 0-0.004 0-28.459-23.071-51.53-51.53-51.53-0.232 0-0.464 0.002-0.696 0.005h0.035c-0.594-0.024-1.291-0.038-1.991-0.038-28.489 0-51.647 22.827-52.182 51.188l-0.001 0.050zM1.982 148.067c0-72.973 59.156-132.129 132.129-132.129v0c72.973 0 132.129 59.156 132.129 132.129s-59.156 132.129-132.129 132.129c-72.973 0-132.129-59.156-132.129-132.129v0zM929.197 761.476c0.011-0.393 0.017-0.857 0.017-1.321 0-28.824-23.367-52.191-52.191-52.191s-52.191 23.367-52.191 52.191c0 28.818 23.357 52.181 52.173 52.191h0.001c0.394 0.011 0.857 0.017 1.321 0.017 28.095 0 50.87-22.775 50.87-50.87 0-0.006 0-0.012 0-0.018v0.001zM1010.787 761.476c0.006 0.491 0.010 1.071 0.010 1.651 0 73.885-59.896 133.781-133.781 133.781s-133.781-59.896-133.781-133.781c0-73.765 59.702-133.587 133.422-133.78h0.018c0.589-0.009 1.285-0.015 1.982-0.015 72.973 0 132.129 59.156 132.129 132.129 0 0.005 0 0.010 0 0.016v-0.001zM81.59 454.606c-0.007 0.311-0.011 0.678-0.011 1.045 0 27.547 22.331 49.879 49.879 49.879 0.817 0 1.63-0.020 2.437-0.058l-0.114 0.004c28.368 0 51.365-22.997 51.365-51.365s-22.997-51.365-51.365-51.365v0c-0.098-0.001-0.214-0.001-0.33-0.001-28.642 0-51.861 23.219-51.861 51.861 0 0 0 0.001 0 0.001v0zM0 454.606c0-72.973 59.156-132.129 132.129-132.129s132.129 59.156 132.129 132.129c0 72.973-59.156 132.129-132.129 132.129v0c-72.973 0-132.129-59.156-132.129-132.129v0z" />
<glyph unicode="&#xe916;" glyph-name="dongtai_meiziyingyong" d="M759.742 229.657v85.223l174.41 114.292v-342.545zM449.569 656.103c-0.008 0.589-0.013 1.285-0.013 1.982 0 82.094 66.551 148.645 148.645 148.645s148.645-66.551 148.645-148.645c0-81.974-66.355-148.449-148.283-148.645h-0.019c-0.394-0.004-0.859-0.006-1.325-0.006-81.201 0-147.092 65.547-147.651 146.616v0.053zM629.265 80.351h-495.484c-0.198-0.003-0.431-0.004-0.665-0.004-30.235 0-54.789 24.325-55.16 54.472v245.134c0.739 30.44 25.59 54.834 56.139 54.834 0.005 0 0.011 0 0.016 0h495.483c0.001 0 0.003 0 0.004 0 30.416 0 55.117-24.47 55.49-54.798v-245.465c-0.182-29.963-24.514-54.182-54.502-54.182-0.349 0-0.697 0.003-1.044 0.010l0.052-0.001zM195.881 740.996c63.968-0.708 115.77-51.816 117.591-115.444l0.004-0.169c0-64.946-52.649-117.595-117.595-117.595s-117.595 52.649-117.595 117.595v0c0.371 63.935 52.285 115.62 116.272 115.62 0.465 0 0.93-0.003 1.394-0.008l-0.071 0.001zM759.742 391.185c0.049 1.144 0.077 2.486 0.077 3.835 0 31.699-15.397 59.801-39.119 77.238l-0.266 0.187c61.025 37.406 101.121 103.737 101.121 179.432 0 1.486-0.015 2.969-0.046 4.448l0.004-0.221c0.008 0.698 0.013 1.523 0.013 2.348 0 120.952-98.051 219.004-219.004 219.004-1.398 0-2.793-0.013-4.185-0.039l0.209 0.003c-148.975-8.588-216.692-102.73-216.692-221.316 0-66.065 10.24-108.015 50.539-146.994h-84.893c21.214 26.722 34.033 60.94 34.033 98.153 0 6.268-0.364 12.451-1.071 18.529l0.070-0.739c0.188 3.080 0.295 6.681 0.295 10.307 0 99.426-80.6 180.026-180.026 180.026-1.73 0-3.454-0.024-5.173-0.073l0.253 0.006c-105.642-1.177-191.368-84.827-195.867-189.526l-0.014-0.409c0.6-55.62 26.056-105.175 65.767-138.165l0.298-0.241c-37.168-21.517-61.772-61.094-61.772-106.417 0-0.214 0.001-0.427 0.002-0.641v0.033-245.43c-0.001-0.198-0.002-0.433-0.002-0.667 0-70.966 57.529-128.495 128.495-128.495 0.465 0 0.93 0.002 1.394 0.007l-0.071-0.001h495.484c0.295-0.002 0.643-0.004 0.991-0.004 71.331 0 129.156 57.825 129.156 129.156 0 0.117 0 0.235 0 0.352v-0.018 16.846l177.714-146.333c0.395-0.008 0.861-0.013 1.328-0.013 37.784 0 68.479 30.354 69.030 68.007l0.001 0.052v367.979c-0.735 37.744-31.505 68.059-69.355 68.059-0.469 0-0.937-0.005-1.403-0.014l0.070 0.001z" />
<glyph unicode="&#xe917;" glyph-name="dongtai_tuwenyingyong" horiz-adv-x="957" d="M792.589 707.368c-29.642 0-56.253 59.284-56.253 87.242v76.126l134.737-163.368zM830.653 138.779h-477.979c-30.596 1.419-55.020 25.961-56.249 56.475l-0.004 0.115v631.579c2.026 30.218 26.035 54.227 56.069 56.243l0.184 0.010h308.211c0-72.758 0-109.811 0-124.295 5.053-70.029 61.633-125.325 131.758-128.327l0.284-0.010h87.916v-435.2c-2.368-28.148-22.928-50.883-49.779-56.517l-0.41-0.072zM880.505 302.147l-145.179 148.547c-2.266 2.324-5.428 3.765-8.926 3.765s-6.66-1.441-8.924-3.763l-0.003-0.003-101.053-125.642c-5.85-7.063-14.622-11.528-24.437-11.528-4.692 0-9.145 1.020-13.151 2.852l0.198-0.081-141.474 62.989c-4.079 2.052-8.888 3.253-13.979 3.253s-9.9-1.201-14.162-3.336l0.183 0.083-113.179-62.653v79.495l111.158 60.632c4.208 2.21 9.195 3.507 14.484 3.507s10.276-1.297 14.659-3.59l-0.174 0.083 121.6-58.947c4.031-1.996 8.777-3.164 13.796-3.164 10.292 0 19.438 4.911 25.221 12.517l0.057 0.078 97.347 128c5.845 7.569 14.922 12.397 25.127 12.397 7.164 0 13.773-2.38 19.079-6.391l-0.080 0.058 3.705-3.368 138.442-145.516zM446.989 567.242c-38.55 0.191-69.727 31.486-69.727 70.062 0 0.119 0 0.237 0.001 0.356v-0.018c0.381 38.032 31.3 68.716 69.386 68.716 38.323 0 69.389-31.067 69.389-69.389s-31.065-69.388-69.386-69.389v0zM132.379 12.8c-30.35 1.723-54.53 25.903-56.245 56.095l-0.007 0.157v631.579c0.343 29.6 23.773 53.618 53.104 54.901l0.117 0.004h90.947v-560.168c2.337-72.22 60.19-130.19 132.144-132.709l0.235-0.007h370.526c-4.287-27.713-27.488-48.831-55.813-49.85l-0.103-0.003zM666.947 960h-314.274c-70.146-2.441-126.783-57.094-132.347-126.167l-0.031-0.486h-92.632c-70.675-3.823-126.663-61.572-127.662-132.618l-0.001-0.097v-631.579c2.496-72.224 60.219-130.181 132.113-133.044l0.266-0.008h534.568c69.924 2.63 126.292 57.247 131.676 126.18l0.030 0.473h32c69.382 5.941 123.746 62.64 125.973 132.5l0.005 0.216v505.263l-223.663 259.368zM164.042 518.063c-20.987-0.376-37.878-17.385-38.063-38.382v-0.018c-0.001-0.1-0.001-0.218-0.001-0.337 0-21.022 17.041-38.063 38.063-38.063 0.001 0 0.001 0 0.002 0h44.8v76.8zM164.042 328.084c-0.101 0.001-0.219 0.002-0.338 0.002-20.836 0-37.726-16.891-37.726-37.726 0-0.119 0.001-0.238 0.002-0.357v0.018c0.189-20.945 17.118-37.874 38.045-38.063h44.818v76.126z" />
<glyph unicode="&#xe918;" glyph-name="list_weifabu" horiz-adv-x="1043" d="M48.726 314.004c-27.135 2.257-48.304 24.837-48.304 52.362 0 18.062 9.116 33.995 22.997 43.45l0.182 0.117 826.052 541.312c8.172 5.496 18.235 8.772 29.063 8.772 29.013 0 52.532-23.52 52.532-52.532 0-5.159-0.744-10.143-2.129-14.853l0.094 0.371-118.388-421.781c-4.294-14.933-17.832-25.674-33.88-25.674-19.435 0-35.191 15.755-35.191 35.191 0 3.388 0.479 6.665 1.373 9.765l-0.061-0.248 105.826 376.482-743.066-486.495 304.535-22.079c21.52-3.129 39.699-15.296 50.838-32.455l0.172-0.282 66.617-114.201c3.015-5.069 4.797-11.177 4.797-17.701 0-19.363-15.697-35.060-35.060-35.060-12.839 0-24.066 6.901-30.174 17.197l-0.089 0.162-65.094 111.917zM437.008 282.409l-59.384 46.822 481.546 609.071 59.384-46.822zM573.288 171.254c0 129.717 105.156 234.873 234.873 234.873s234.873-105.156 234.873-234.873v0c0-129.717-105.156-234.873-234.873-234.873s-234.873 105.156-234.873 234.873v0zM883.533 343.316c-22.473 9.728-48.642 15.387-76.134 15.387s-53.661-5.659-77.408-15.875l1.274 0.488c-21.907-9.059-40.541-21.954-55.902-38.007l-0.057-0.060c-16.649-17.719-30.057-38.71-39.135-61.874l-0.454-1.317c-8.695-19.762-13.755-42.801-13.755-67.022 0-1.464 0.018-2.924 0.055-4.379l-0.004 0.215c-0.054-1.612-0.085-3.507-0.085-5.41 0-50.26 21.55-95.488 55.914-126.946l0.13-0.117c16.598-17.264 36.449-31.262 58.586-41.029l1.179-0.464c20.058-8.699 43.419-13.759 67.961-13.759 1.535 0 3.066 0.020 4.592 0.059l-0.226-0.005c1.243-0.033 2.706-0.052 4.173-0.052 24.087 0 46.993 5.062 67.71 14.179l-1.078-0.423c23.252 8.973 43.14 21.891 59.805 38.105l-0.040-0.038c17.605 17.347 31.967 37.928 42.134 60.787l0.501 1.262c9.623 21.458 15.228 46.509 15.228 72.868 0 0.211 0 0.422-0.001 0.634v-0.033c0.001 0.196 0.001 0.429 0.001 0.661 0 25.56-5.61 49.809-15.667 71.584l0.439-1.059c-10.519 24.237-25.044 44.86-42.945 61.982l-0.070 0.067c-15.644 16.496-34.518 29.756-55.63 38.794l-1.089 0.415zM782.656 132.045v163.688c-0.002 0.113-0.003 0.247-0.003 0.381 0 13.876 11.248 25.124 25.124 25.124 0.001 0 0.002 0 0.003 0v0c14.086 0 25.505-11.419 25.505-25.505v0-163.688c0-13.876-11.248-25.124-25.124-25.124s-25.124 11.248-25.124 25.124v0zM807.78 93.978c0.469 0.030 1.018 0.048 1.57 0.048 14.296 0 25.886-11.589 25.886-25.886 0-0.552-0.017-1.101-0.051-1.645l0.004 0.074c0.002-0.114 0.003-0.249 0.003-0.383 0-14.927-12.101-27.028-27.028-27.028-0.135 0-0.269 0.001-0.404 0.003h0.020c-0.344-0.016-0.748-0.025-1.154-0.025-14.717 0-26.647 11.93-26.647 26.647 0 0.276 0.004 0.552 0.013 0.826l-0.001-0.040c0.823 14.772 12.911 26.462 27.771 26.647h0.018z" />
<glyph unicode="&#xe919;" glyph-name="dongtai_xitongyingyong" d="M1016.96 529.28l-4.16 26.88-82.24 27.52c-8.288 25.006-17.382 46.163-28.021 66.38l1.141-2.38 38.72 77.44-14.4 23.040c-32.887 44.792-71.251 83.055-114.677 114.806l-1.483 1.034-22.080 16-77.76-40c-17.813 9.466-38.968 18.559-60.898 25.97l-3.102 0.91-28.16 81.92-26.88 4.16c-24.223 4.289-52.22 6.842-80.777 7.039l-0.183 0.001c-28.852-0.197-56.961-2.75-84.326-7.475l3.046 0.435-26.88-4.16-27.52-82.24c-25.116-8.305-46.276-17.292-66.548-27.756l2.548 1.196-78.080 38.4-22.080-14.4c-45.031-32.74-83.42-71.129-115.138-114.687l-1.022-1.473-16-22.080 40.32-77.76c-9.435-17.79-18.527-38.944-25.957-60.864l-0.923-3.136-82.24-27.2-4.16-26.88c-4.308-24.523-6.862-52.857-7.039-81.755l-0.001-0.165c0.197-28.852 2.75-56.961 7.475-84.326l-0.435 3.046 4.16-26.88 82.24-27.52c8.288-25.006 17.382-46.163 28.021-66.38l-1.141 2.38-38.72-78.080 16-22.080c16.588-23.028 33.812-43.298 52.505-62.105l-0.025 0.025c18.881-19.272 39.151-37.005 60.713-53.103l1.367-0.977 22.080-16 77.44 38.72c17.868-9.54 39.026-18.636 60.979-26.001l3.021-0.879 27.52-82.24 26.88-4.16c22.472-3.494 48.391-5.49 74.776-5.49 2.512 0 5.020 0.018 7.523 0.054l-0.379-0.004c28.859 0.206 56.967 2.759 84.335 7.476l-3.055-0.436 26.88 4.16 27.52 82.24c25.176 8.375 46.333 17.36 66.627 27.786l-2.627-1.226 77.44-38.72 22.080 16c23.069 16.445 43.347 33.678 62.066 52.465l0.014 0.015c19.545 18.984 37.486 39.362 53.76 61.062l0.96 1.338 16 22.080-38.72 77.44c9.528 17.859 18.623 39.017 25.996 60.966l0.884 3.034 82.24 27.52 4.16 26.88c3.494 22.472 5.49 48.391 5.49 74.776 0 2.512-0.018 5.020-0.054 7.523l0.004-0.379c0.006 0.904 0.010 1.973 0.010 3.043 0 27.531-2.448 54.491-7.139 80.672l0.409-2.755zM943.68 448v0c-0.054-16.636-1.099-32.969-3.078-49.013l0.198 1.973-39.68-13.12-35.2-11.84-10.88-35.52c-6.529-22.685-14.372-42.219-23.909-60.737l0.869 1.857-17.28-32 35.2-70.4c-10.382-12.801-20.847-24.28-31.929-35.131l-0.071-0.069c-10.812-11.257-22.191-21.724-34.19-31.458l-0.69-0.542-70.080 35.2-32-16.96c-16.804-9.018-36.6-17.473-57.175-24.205l-2.665-0.755-35.2-10.88-11.52-34.88-13.12-39.68c-14.059-1.834-30.32-2.88-46.824-2.88-0.076 0-0.151 0-0.227 0h0.012c-16.641 0.058-32.974 1.103-49.019 3.079l1.979-0.199-13.12 39.68-13.44 36.48-35.52 10.88c-22.831 7.005-42.439 15.261-61.007 25.204l1.807-0.884-32 16.96-32-16.64-37.44-18.56c-12.801 10.382-24.28 20.847-35.131 31.929l-0.069 0.071c-11.173 10.913-21.638 22.393-31.415 34.455l-0.585 0.745 33.92 68.48-16.96 32c-9.125 16.834-17.485 36.54-23.974 57.077l-0.666 2.443-9.6 35.84-74.88 24.96c-2.204 13.773-3.7 30.017-4.149 46.523l-0.011 0.517c0.054 16.636 1.099 32.969 3.078 49.013l-0.198-1.973 76.16 24.64 10.88 35.2c7.291 23.189 15.646 42.997 25.599 61.83l-0.959-1.99 16.96 32-16.32 32-20.16 38.72c19.974 24.755 41.805 46.586 65.738 65.917l0.822 0.643 70.4-35.2 32 17.28c16.853 9.010 36.661 17.366 57.268 23.932l2.572 0.708 35.2 10.88 11.52 34.88 13.12 39.68c14.043 1.856 30.464 3.013 47.119 3.198l0.241 0.002c16.632-0.050 32.965-1.095 49.008-3.078l-1.968 0.198 24.96-74.56 35.2-10.88c23.255-6.814 43.101-14.65 62.047-24.028l-2.207 0.988 32-16.96 70.080 35.2c24.845-20.019 46.775-41.847 66.246-65.757l0.634-0.803-34.56-72 16.96-32c9.072-16.92 17.531-36.827 24.225-57.529l0.735-2.631 10.88-35.2 74.56-24.64c1.851-13.051 2.907-28.126 2.907-43.447 0-1.488-0.010-2.974-0.030-4.457l0.002 0.225zM512 643.52c-107.845-0.182-195.2-87.65-195.2-195.52 0-107.983 87.537-195.52 195.52-195.52s195.52 87.537 195.52 195.52v0c-0.182 108.022-87.793 195.52-195.84 195.52 0 0 0 0 0 0v0zM593.28 366.72c-20.694-20.514-49.187-33.189-80.64-33.189-63.27 0-114.56 51.29-114.56 114.56s51.29 114.56 114.56 114.56c63.27 0 114.56-51.29 114.56-114.56 0-0.032 0-0.064 0-0.096v0.005c0-0.107 0.001-0.233 0.001-0.36 0-31.616-12.843-60.233-33.597-80.917l-0.003-0.003z" />
<glyph unicode="&#xe91a;" glyph-name="dongtai_yewuyingyong" d="M81.214 525.33v144.066c0.183 27.943 22.877 50.524 50.846 50.524 0.621 0 1.24-0.011 1.856-0.033l-0.089 0.003h741.517c0.738 0.038 1.603 0.060 2.473 0.060 27.979 0 50.68-22.598 50.846-50.538v-144.082zM456.563 443.41h94.279c2.144-7.395 3.377-15.89 3.377-24.672 0-2.128-0.072-4.239-0.215-6.331l0.015 0.283c-7.348-21.356-26.109-36.924-48.811-39.522l-0.27-0.025c-24 1.476-43.765 18.015-50.046 40.216l-0.094 0.391c-0.309 2.482-0.486 5.355-0.486 8.269 0 8.033 1.341 15.753 3.812 22.948l-0.148-0.497zM876.050 66.295h-741.517c-0.527-0.019-1.146-0.030-1.767-0.030-28.472 0-51.553 23.081-51.553 51.553 0 0.135 0.001 0.269 0.002 0.404v-0.021 326.268h289.898c-1.32-6.654-2.076-14.304-2.076-22.13 0-3.023 0.113-6.019 0.334-8.985l-0.024 0.396c6.332-69.177 64.065-122.944 134.356-122.944s128.024 53.766 134.317 122.416l0.039 0.528c0.196 2.564 0.308 5.554 0.308 8.569 0 7.834-0.755 15.491-2.195 22.903l0.122-0.752h292.37v-326.268c0.001-0.108 0.001-0.236 0.001-0.364 0-28.472-23.081-51.553-51.553-51.553-0.373 0-0.745 0.004-1.116 0.012l0.055-0.001zM412.072 843.123h185.379c10.274-0.447 18.71-7.798 20.807-17.509l0.026-0.146v-22.952h-225.986v19.774c0 0.008 0 0.017 0 0.027 0 11.133 8.733 20.227 19.722 20.804l0.051 0.002zM701.263 802.516v50.494c-1.18 39.251-33.281 70.621-72.708 70.621-0.011 0-0.022 0-0.033 0h-247.171c-39.003 0-70.621-31.618-70.621-70.621v0-50.847h-176.552c-0.315 0.003-0.687 0.004-1.060 0.004-73.398 0-132.921-59.401-133.12-132.752v-551.213c0.2-73.564 59.881-133.122 133.473-133.122 0.249 0 0.497 0.001 0.745 0.002h741.479c0.42-0.005 0.917-0.008 1.414-0.008 73.13 0 132.414 59.284 132.414 132.414 0 0.251-0.001 0.502-0.002 0.752v-0.039 551.194c0.001 0.213 0.002 0.466 0.002 0.718 0 72.935-59.126 132.061-132.061 132.061-0.621 0-1.242-0.004-1.861-0.013l0.094 0.001z" />
<glyph unicode="&#xe91b;" glyph-name="bar_quanbuyingyong" d="M381.074-64h-307.931c-40.396 0-73.143 32.747-73.143 73.143v0 307.2c0 40.396 32.747 73.143 73.143 73.143v0h301.349c0.794 0.029 1.726 0.046 2.663 0.046 41.219 0 74.889-32.318 77.055-72.996l0.008-0.193v-301.349c0.015-0.575 0.024-1.253 0.024-1.932 0-41.211-32.305-74.877-72.973-77.054l-0.194-0.008zM73.143 318.171v0-309.029h307.931v307.931zM943.543-58.149h-300.617c-40.396 0-73.143 32.747-73.143 73.143v0 302.080c0 40.396 32.747 73.143 73.143 73.143v0h301.349c40.396 0 73.143-32.747 73.143-73.143v0-301.349c0.002-0.217 0.004-0.474 0.004-0.731 0-40.396-32.747-73.143-73.143-73.143-0.001 0-0.003 0-0.004 0v0zM642.926 318.171v0-301.349h302.446v302.446zM950.857 505.051h-302.446c-0.794-0.029-1.726-0.046-2.663-0.046-41.219 0-74.889 32.318-77.055 72.996l-0.008 0.193v308.663c0 40.396 32.747 73.143 73.143 73.143v0h301.349c1.122 0.058 2.436 0.092 3.757 0.092 41.235 0 74.915-32.343 77.058-73.044l0.008-0.191v-301.349c0.048-1.012 0.075-2.199 0.075-3.393 0-41.229-32.333-74.905-73.026-77.057l-0.192-0.008zM642.926 886.857v0-307.2h307.931v307.2zM381.074 505.051h-307.931c-40.396 0-73.143 32.747-73.143 73.143v0 308.663c0 40.396 32.747 73.143 73.143 73.143v0h301.349c0.794 0.029 1.726 0.046 2.663 0.046 41.219 0 74.889-32.318 77.055-72.996l0.008-0.193v-301.349c0.048-1.012 0.075-2.199 0.075-3.393 0-41.229-32.333-74.905-73.026-77.057l-0.192-0.008zM73.143 886.857v0-307.2h307.931v307.931z" />
<glyph unicode="&#xe91c;" glyph-name="form_guanbi" d="M1002.667 60.587l-387.413 387.413 387.413 387.413c13.212 13.212 21.384 31.465 21.384 51.627 0 40.323-32.688 73.011-73.011 73.011-20.161 0-38.414-8.172-51.627-21.384l-387.413-387.413-387.413 387.413c-13.212 13.212-31.465 21.384-51.627 21.384-40.323 0-73.011-32.688-73.011-73.011 0-20.161 8.172-38.414 21.384-51.627l387.413-387.413-387.413-387.413c-13.212-13.212-21.384-31.465-21.384-51.627 0-40.323 32.688-73.011 73.011-73.011 20.161 0 38.414 8.172 51.627 21.384l387.413 387.413 387.413-387.413c13.212-13.212 31.465-21.384 51.627-21.384 40.323 0 73.011 32.688 73.011 73.011 0 20.161-8.172 38.414-21.384 51.627v0z" />
<glyph unicode="&#xe91d;" glyph-name="form_xinzeng" d="M512-64c-282.77 0-512 229.23-512 512s229.23 512 512 512c282.77 0 512-229.23 512-512v0c0-282.77-229.23-512-512-512v0zM732.16 413.44c18.454 1.793 32.762 17.226 32.762 36s-14.308 34.207-32.614 35.988l-0.148 0.012h-183.68v182.4c-1.793 18.454-17.226 32.762-36 32.762s-34.207-14.308-35.988-32.614l-0.012-0.148v-182.4h-184.32c-18.454-1.793-32.762-17.226-32.762-36s14.308-34.207 32.614-35.988l0.148-0.012h184.64v-183.36c1.793-18.454 17.226-32.762 36-32.762s34.207 14.308 35.988 32.614l0.012 0.148v183.36z" />
<glyph unicode="&#xe91e;" glyph-name="gongzuotai_pinglunshu" d="M512-27.429c-0.108-0.001-0.236-0.002-0.364-0.002-11.924 0-22.516 5.707-29.192 14.538l-0.067 0.092-73.143 99.84c-238.446 40.594-409.234 212.48-409.234 413.989 0 232.96 229.669 422.4 512 422.4s512-189.44 512-422.4c0-201.509-170.423-373.394-408.137-413.623l-73.143-99.84c-6.729-9.145-17.45-15.013-29.542-15.013-0.414 0-0.827 0.007-1.238 0.021l0.060-0.002zM512 854.309c-242.103 0-438.857-157.989-438.857-352.183 0-170.423 152.137-316.343 361.326-346.331 10.062-1.342 18.69-6.603 24.437-14.172l0.066-0.091 53.394-73.143 53.394 73.143c5.813 7.659 14.441 12.921 24.316 14.242l0.187 0.020c209.189 29.989 361.326 175.543 361.326 346.331 0 194.194-196.754 352.183-438.857 352.183zM299.52 452.023c-28.327 1.21-50.834 24.468-50.834 52.983 0 29.287 23.742 53.029 53.029 53.029 29.271 0 53.003-23.716 53.029-52.981v-0.002c-0.609-29.422-24.604-53.040-54.115-53.040-0.39 0-0.778 0.004-1.166 0.012l0.058-0.001zM686.080 452.023c-28.327 1.21-50.834 24.468-50.834 52.983 0 29.287 23.742 53.029 53.029 53.029 29.271 0 53.003-23.716 53.029-52.981v-0.002c-0.609-29.422-24.604-53.040-54.115-53.040-0.39 0-0.778 0.004-1.166 0.012l0.058-0.001zM492.983 452.023c-28.151 1.419-50.439 24.589-50.439 52.965 0 29.287 23.742 53.029 53.029 53.029s53.029-23.742 53.029-53.029c0-0.621-0.011-1.239-0.032-1.855l0.002 0.089c-0.609-29.422-24.604-53.040-54.115-53.040-0.39 0-0.778 0.004-1.166 0.012l0.058-0.001z" />
<glyph unicode="&#xe91f;" glyph-name="list_caozuo" d="M768 448c0 70.692 57.308 128 128 128s128-57.308 128-128c0-70.692-57.308-128-128-128v0c-70.692 0-128 57.308-128 128v0zM384 448c0 70.692 57.308 128 128 128s128-57.308 128-128c0-70.692-57.308-128-128-128v0c-70.692 0-128 57.308-128 128v0zM0 448c0 70.692 57.308 128 128 128s128-57.308 128-128c0-70.692-57.308-128-128-128v0c-70.692 0-128 57.308-128 128v0z" />
<glyph unicode="&#xe920;" glyph-name="login_password" horiz-adv-x="768" d="M737.92 710.4c-20.408 49.559-48.285 92.014-82.718 128.167l0.158-0.167c-33.739 36.952-74.22 67.095-119.59 88.606l-2.33 0.994c-43.899 20.356-95.283 32.231-149.44 32.231s-105.54-11.874-151.689-33.161l2.249 0.93c-47.649-21.998-88.13-51.625-121.701-87.761l-0.219-0.239c-34.223-36.014-62.092-78.46-81.557-125.277l-1.003-2.723c-19.039-46.401-30.091-100.258-30.091-156.696 0-1.049 0.004-2.098 0.011-3.145l-0.001 0.161v-536.96c-0.016-0.581-0.025-1.265-0.025-1.952 0-41.99 33.419-76.174 75.111-77.406l0.114-0.003h617.6c41.773 1.055 75.233 35.168 75.233 77.097 0 0.796-0.012 1.589-0.036 2.379l0.003-0.116v536.96c0.001 0.309 0.001 0.674 0.001 1.039 0 56.556-11.048 110.531-31.103 159.885l1.022-2.845zM264.64 856v0 0c34.664 16.566 75.342 26.242 118.28 26.242 0.38 0 0.759-0.001 1.139-0.002h-0.059c0.074 0 0.161 0 0.248 0 42.58 0 82.984-9.313 119.288-26.013l-1.776 0.733c37.447-17.797 69.285-41.345 95.823-69.888l0.177-0.192c28.323-29.57 51.339-64.495 67.345-103.064l0.815-2.216c15.57-37.899 24.618-81.89 24.64-127.991v-35.209h-613.12v33.92c0.072 46.115 9.115 90.098 25.476 130.325l-0.836-2.325c16.178 41.114 38.701 76.381 66.74 106.435l-0.18-0.195c26.659 28.612 58.518 51.974 94.13 68.653l1.87 0.787zM690.88 440v-424.64c0.043-0.241 0.067-0.517 0.067-0.8s-0.024-0.559-0.071-0.829l0.004 0.029h-613.44c-0.043 0.241-0.067 0.517-0.067 0.8s0.024 0.559 0.071 0.829l-0.004-0.029v425.28zM348.16 265.28v-102.080c0-19.882 16.118-36 36-36s36 16.118 36 36v0 102.4c18.777 12.055 31.040 32.828 31.040 56.466 0 36.937-29.943 66.88-66.88 66.88s-66.88-29.943-66.88-66.88c0-0.051 0-0.103 0-0.154v0.008c0.401-23.716 12.97-44.411 31.717-56.155l0.283-0.165z" />
<glyph unicode="&#xe921;" glyph-name="login_user" horiz-adv-x="768" d="M737.6 126.080c-39.924 91.948-111.977 163.689-201.663 202.245l-2.497 0.955c-12.765 5.622-28.608 11.294-44.878 15.954l-2.802 0.686c47.876 16.463 88.785 42.423 122.243 75.843l-0.003-0.003c57.273 56.933 92.72 135.767 92.72 222.88s-35.447 165.947-92.704 222.865l-0.015 0.015c-57.468 57.016-136.619 92.251-224 92.251s-166.532-35.235-224.021-92.271l0.021 0.020c-57.273-56.933-92.72-135.767-92.72-222.88s35.447-165.947 92.704-222.865l0.015-0.015c33.455-33.417 74.364-59.377 120.019-75.172l2.221-0.668c-18.957-5.252-34.803-10.926-50.122-17.585l2.442 0.945c-92.183-39.511-164.236-111.252-203.199-200.722l-0.961-2.478c-19.217-43.817-30.4-94.887-30.4-148.569 0-0.081 0-0.162 0-0.243v0.012c0-22.887 18.553-41.44 41.44-41.44s41.44 18.553 41.44 41.44v0c0 0.156 0 0.339 0 0.523 0 82.669 33.78 157.448 88.29 211.287l0.030 0.030c54.636 54.207 129.886 87.705 212.96 87.705s158.324-33.499 212.98-87.725l-0.020 0.019c54.54-53.869 88.32-128.648 88.32-211.317 0-0.184 0-0.368-0.001-0.551v0.028c0-22.887 18.553-41.44 41.44-41.44s41.44 18.553 41.44 41.44v0c-0.137 53.772-11.304 104.9-31.358 151.289l0.958-2.489zM149.76 644.48c-0.002 0.38-0.003 0.83-0.003 1.28 0 129.367 104.873 234.24 234.24 234.24s234.24-104.873 234.24-234.24c0-129.366-104.871-234.238-234.236-234.24v0c-0.095 0-0.209 0-0.322 0-128.853 0-233.373 104.183-233.918 232.908v0.052z" />
<glyph unicode="&#xe922;" glyph-name="searchbar_sousuo" horiz-adv-x="960" d="M948.16 8.96l-284.16 303.040c51.741 68.248 82.882 154.595 82.882 248.216 0 0.486-0.001 0.973-0.003 1.459v-0.075c0 220.16-167.040 398.4-373.44 398.4s-373.44-178.24-373.44-398.4 167.040-398.4 373.44-398.4c90.027 0.208 172.207 33.636 234.968 88.671l-0.408-0.351 284.16-303.040c7.045-7.674 17.123-12.467 28.32-12.467s21.275 4.793 28.295 12.439l0.025 0.028c7.092 7.892 11.429 18.385 11.429 29.89 0 11.839-4.592 22.605-12.092 30.615l0.023-0.025zM372.16 248.64c-161.92 0-293.44 140.48-293.44 312.96s131.52 312.96 293.44 312.96 293.44-140.48 293.44-312.96-130.24-312.96-292.16-312.96z" />
<glyph unicode="&#xe923;" glyph-name="dropdown_xuanze" horiz-adv-x="1365" d="M345.316-64c-22.128 2.656-40.906 15.051-52.165 32.706l-0.172 0.289-284.444 468.196c-5.705 9.512-9.080 20.987-9.080 33.25 0 25.33 14.396 47.298 35.452 58.169l0.366 0.172c10.422 6.028 22.927 9.585 36.262 9.585 25.695 0 48.305-13.205 61.415-33.199l0.172-0.279 237.227-391.964 873.244 827.164c13.214 12.138 30.911 19.578 50.347 19.578s37.133-7.44 50.401-19.627l-0.054 0.049c12.75-11.876 20.7-28.761 20.7-47.502s-7.95-35.626-20.661-47.466l-0.039-0.036-939.236-889.742c-13.099-12.333-30.794-19.912-50.26-19.912-0.131 0-0.261 0-0.391 0.001h0.020z" />
<glyph unicode="&#xe924;" glyph-name="icon_bitian" horiz-adv-x="896" d="M503.68 350.72v-357.12c-0.321-31.016-24.837-56.202-55.554-57.595l-0.126-0.005c-30.828 0.362-55.68 25.437-55.68 56.316 0 0.001 0 0.003 0 0.004v0 358.4l-306.56-176.64c-8.493-5.21-18.776-8.296-29.781-8.296-20.142 0-37.869 10.339-48.165 25.999l-0.134 0.218c-4.729 8.068-7.521 17.767-7.521 28.118 0 20.672 11.137 38.742 27.738 48.539l0.263 0.143 307.84 179.2-305.28 177.28c-17.68 10.38-29.362 29.299-29.362 50.946 0 10.169 2.578 19.736 7.116 28.083l-0.154-0.309c9.326 17.342 27.345 28.933 48.071 28.933 10.378 0 20.077-2.906 28.328-7.949l-0.239 0.136 307.84-178.56v357.12c0 30.928 25.072 56 56 56s56-25.072 56-56v0-358.4l308.48 177.28c8.117 4.981 17.945 7.931 28.463 7.931 19.845 0 37.237-10.502 46.92-26.252l0.137-0.239c4.729-8.068 7.521-17.767 7.521-28.118 0-20.672-11.137-38.742-27.738-48.539l-0.263-0.143-307.84-179.2 306.56-177.92c16.984-9.752 28.239-27.786 28.239-48.448 0-10.459-2.884-20.244-7.899-28.604l0.14 0.252c-9.326-17.342-27.345-28.933-48.071-28.933-10.378 0-20.077 2.906-28.328 7.949l0.239-0.136z" />
<glyph unicode="&#xe925;" glyph-name="login_tishi" d="M512 888c0.079 0 0.173 0 0.266 0 243.005 0 440-196.995 440-440 0-181.281-109.63-336.957-266.207-404.345l-2.859-1.095c-50.497-21.892-109.308-34.627-171.093-34.627-243.005 0-440 196.995-440 440 0 121.493 49.241 231.485 128.853 311.107v0c79.391 79.098 188.913 128.002 309.857 128.002 0.416 0 0.832-0.001 1.248-0.002h-0.064zM512 960c-282.77 0-512-229.23-512-512s229.23-512 512-512c282.77 0 512 229.23 512 512v0c0 282.77-229.23 512-512 512v0zM512 320c-22.091 0-40 17.909-40 40v0 368.96c0 22.091 17.909 40 40 40s40-17.909 40-40v0-368.96c0-22.091-17.909-40-40-40v0zM466.88 210.88c-0.001 0.095-0.001 0.207-0.001 0.32 0 24.919 20.201 45.12 45.12 45.12s45.12-20.201 45.12-45.12c0-24.919-20.2-45.119-45.119-45.12v0c-24.919 0-45.12 20.201-45.12 45.12v0z" />
<glyph unicode="&#xe926;" glyph-name="pagination_shangyiye" horiz-adv-x="682" d="M625.778-64c-0.033 0-0.072 0-0.111 0-13.84 0-26.527 4.943-36.389 13.159l-565.384 455.037c-13.879 10.489-22.756 26.963-22.756 45.511s8.876 35.022 22.612 45.407l0.143 0.104 563.2 455.111c9.88 7.957 22.582 12.772 36.409 12.772 32.189 0 58.283-26.094 58.283-58.283 0-18.362-8.491-34.741-21.761-45.423l-0.113-0.088-508.587-411.307 509.156-409.6c13.882-10.489 22.759-26.965 22.759-45.514 0-31.419-25.47-56.889-56.889-56.889-0.201 0-0.403 0.001-0.603 0.003h0.031z" />
<glyph unicode="&#xe927;" glyph-name="pagination_xiayiye" horiz-adv-x="682" d="M56.889-64c0.033 0 0.072 0 0.111 0 13.84 0 26.527 4.943 36.389 13.159l565.384 455.037c13.879 10.489 22.756 26.963 22.756 45.511s-8.876 35.022-22.612 45.407l-0.143 0.104-563.2 455.111c-9.88 7.957-22.582 12.772-36.409 12.772-32.189 0-58.283-26.094-58.283-58.283 0-18.362 8.491-34.741 21.761-45.423l0.113-0.088 508.587-411.307-509.156-409.6c-13.882-10.489-22.759-26.965-22.759-45.514 0-31.419 25.47-56.889 56.889-56.889 0.201 0 0.403 0.001 0.603 0.003h-0.031z" />
<glyph unicode="&#xe928;" glyph-name="bar_chexiao" d="M512 960c-282.77 0-512-229.23-512-512s229.23-512 512-512c282.77 0 512 229.23 512 512v0c0 282.77-229.23 512-512 512v0zM796.672 412.16h-569.344c-19.794 0-35.84 16.046-35.84 35.84v0c0 19.794 16.046 35.84 35.84 35.84h569.344c19.794 0 35.84-16.046 35.84-35.84v0 0c0-19.794-16.046-35.84-35.84-35.84v0z" />
<glyph unicode="&#xe929;" glyph-name="dropdown_shouqi" horiz-adv-x="1536" d="M33.28 154.88l656.64 768c18.21 22.982 46.119 37.592 77.44 37.592s59.23-14.61 77.284-37.387l0.156-0.205 656.64-768c20.826-23.897 33.523-55.351 33.523-89.771 0-16.46-2.904-32.242-8.227-46.861l0.303 0.952c-16.465-44.398-55.628-76.731-103.021-83.127l-0.659-0.073h-1312c-48.052 6.469-87.215 38.802-103.392 82.315l-0.288 0.885c-5.020 13.667-7.923 29.449-7.923 45.909 0 34.42 12.697 65.875 33.663 89.936l-0.14-0.164z" />
<glyph unicode="&#xe92a;" glyph-name="dropdown_shouqi2" horiz-adv-x="768" d="M164.693 937.813l575.147-437.76c17.031-11.11 28.13-30.072 28.13-51.627s-11.099-40.516-27.894-51.482l-0.236-0.144-575.147-438.613c-18.552-13.97-41.984-22.374-67.378-22.374-12.206 0-23.958 1.941-34.965 5.532l0.797-0.225c-32.434 8.857-56.839 35.549-62.227 68.628l-0.066 0.492v875.52c5.454 33.571 29.86 60.263 61.695 68.98l0.599 0.14c10.21 3.366 21.963 5.307 34.168 5.307 25.395 0 48.827-8.404 67.666-22.582l-0.288 0.208z" />
<glyph unicode="&#xe92b;" glyph-name="dropdown_xiala" horiz-adv-x="1536" d="M1502.72 741.12l-656.64-768c-18.21-22.982-46.119-37.592-77.44-37.592s-59.23 14.61-77.284 37.387l-0.156 0.205-656.64 768c-20.826 23.897-33.523 55.351-33.523 89.771 0 16.46 2.904 32.242 8.227 46.861l-0.303-0.952c16.266 44.067 54.87 76.275 101.707 83.117l0.693 0.083h1313.28c48.052-6.469 87.215-38.802 103.392-82.315l0.288-0.885c5.020-13.667 7.923-29.449 7.923-45.909 0-34.42-12.697-65.875-33.663-89.936l0.14 0.164z" />
<glyph unicode="&#xe92c;" glyph-name="list_dianzan" horiz-adv-x="951" d="M946.469 516.389c-11.298 44.045-38.669 80.355-75.343 103.078l-0.726 0.419c-22.796 13.562-50.264 21.578-79.604 21.578-0.171 0-0.343 0-0.514-0.001h-103.105c10.284 32.061 17.683 69.399 20.734 107.961l0.112 1.754s0 2.194 0 2.926c0.047 1.993 0.074 4.34 0.074 6.694 0 36.953-6.595 72.367-18.673 105.126l0.68-2.106c-10.685 28.196-28.315 51.712-50.846 69.221l-0.354 0.265c-20.354 15.011-45.449 24.727-72.693 26.671l-0.45 0.026c-3.888 0.308-8.418 0.483-12.989 0.483-19.278 0-37.828-3.121-55.171-8.884l1.234 0.356c-31.764-10.461-56.638-34.138-68.497-64.352l-0.258-0.745c-8.55-21.255-14.976-45.969-18.14-71.692l-0.145-1.451c0-1.829 0-3.657 0-5.486 0-8.777-2.56-16.823-4.389-24.137-13.908-63.016-43.285-117.741-83.968-161.887l0.22 0.241c-20.289-22.171-43.241-41.401-68.478-57.339l-1.373-0.81c-15.704-9.646-34.723-15.36-55.076-15.36-0.052 0-0.103 0-0.155 0h-120.678c-43.133-0.383-77.952-35.438-77.952-78.626 0-1.030 0.020-2.055 0.059-3.075l-0.004 0.147v-385.097c-0.020-0.655-0.031-1.425-0.031-2.197 0-42.977 34.641-77.863 77.525-78.259h167.169c35.542-1.671 68.866-9.174 99.694-21.573l-2.049 0.728c77.832-28.629 167.711-45.19 261.459-45.19 6.311 0 12.604 0.075 18.879 0.224l-0.932-0.018c87.040 0 151.771 23.040 192 68.389 17.668 20.044 30.49 44.775 36.38 72.084l0.191 1.059c0.854 3.764 1.627 8.499 2.143 13.311l0.051 0.586c25.098 18.553 43.34 45.121 51.005 75.874l0.195 0.926c1.884 8.58 2.963 18.435 2.963 28.543 0 15.964-2.692 31.299-7.646 45.576l0.295-0.976c20.397 18.828 34.691 43.995 39.747 72.36l0.116 0.783c0.628 4.824 0.987 10.404 0.987 16.067 0 20.76-4.819 40.396-13.398 57.848l0.343-0.772c8.415 15.826 15.114 34.173 19.146 53.499l0.237 1.359c2.373 10.331 3.732 22.195 3.732 34.377s-1.36 24.046-3.936 35.448l0.203-1.071zM853.943 367.909c6.789-9.352 10.86-21.061 10.86-33.72 0-1.905-0.092-3.789-0.272-5.647l0.019 0.236c-4.926-18.158-16.655-32.987-32.213-41.881l-0.335-0.177c-10.46-7.052-17.248-18.856-17.248-32.246 0-7.865 2.342-15.183 6.367-21.294l-0.090 0.146c6.065-10.427 9.646-22.947 9.646-36.304 0-3.967-0.316-7.861-0.924-11.656l0.055 0.418c-5.519-17.229-17.446-31.061-32.908-38.959l-0.372-0.173c-11.371-6.35-18.934-18.31-18.934-32.037 0-1.598 0.103-3.173 0.301-4.717l-0.019 0.183c0.001-0.163 0.002-0.356 0.002-0.549 0-20.748-8.074-39.61-21.251-53.617l0.037 0.040c-31.503-26.469-72.504-42.549-117.262-42.549-6.228 0-12.384 0.311-18.452 0.919l0.765-0.062c-5.185-0.135-11.291-0.211-17.414-0.211-85.512 0-167.532 14.951-243.588 42.381l5.002-1.576c-30.155 11.555-65.203 20.068-101.629 23.975l-1.868 0.162v402.286c10.896 4.272 20.165 8.939 28.935 14.341l-0.775-0.444c33.122 20.884 61.627 45.086 86.332 72.753l0.342 0.39c49.624 53.843 85.667 120.944 102.236 195.382l0.53 2.835c2.56 11.337 4.389 23.406 6.217 34.377 8.046 51.931 14.263 70.583 36.571 77.166 8.248 3.076 17.777 4.856 27.722 4.856 15.867 0 30.676-4.531 43.202-12.37l-0.342 0.2c24.503-17.92 36.571-57.783 36.571-114.834-2.963-37.56-10.763-72.366-22.817-105.114l0.874 2.714c-3.233-7.395-5.113-16.011-5.113-25.067 0-13.136 3.958-25.348 10.746-35.508l-0.146 0.233c11.33-17.177 30.49-28.389 52.277-28.526h123.267c0.226 0.002 0.493 0.004 0.76 0.004 14.949 0 28.946-4.077 40.939-11.179l-0.373 0.204c19.427-12.264 33.703-31.182 39.717-53.488l0.146-0.637c1.653-7.135 2.6-15.328 2.6-23.743 0-24.197-7.833-46.564-21.101-64.704l0.216 0.309c-3.938-5.967-6.282-13.288-6.282-21.156 0-9.186 3.195-17.626 8.534-24.268l-0.059 0.075zM76.8 467.749h109.714v-388.023h-109.714v388.023z" />
<glyph unicode="&#xe92d;" glyph-name="list_zhuanfa" horiz-adv-x="1103" d="M941.686 356.628c-0.236 0.004-0.515 0.007-0.794 0.007-25.392 0-46.028-20.364-46.467-45.652l-0.001-0.041v-260.332c-0.214-13.104-10.887-23.644-24.022-23.644-0.278 0-0.555 0.005-0.831 0.014l0.040-0.001h-751.458c-0.236-0.008-0.513-0.013-0.791-0.013-13.135 0-23.807 10.54-24.021 23.624v748.328c-0.009 0.239-0.013 0.519-0.013 0.801 0 13.268 10.756 24.025 24.025 24.025 0.282 0 0.562-0.005 0.842-0.014l-0.041 0.001h337.132c25.232 0 45.686 20.454 45.686 45.686s-20.454 45.686-45.686 45.686h-337.132c-0.012 0-0.027 0-0.042 0-64.147 0-116.354-51.118-118.108-114.841l-0.004-0.162v-748.308c1.326-64.23 53.707-115.791 118.13-115.791 0.008 0 0.017 0 0.025 0h751.851c0.012 0 0.027 0 0.042 0 64.147 0 116.354 51.118 118.108 114.841l0.004 0.162v259.938c-0.656 25.239-21.167 45.475-46.453 45.686h-0.020zM447.015 624.837c-34.358-49.348-59.538-107.774-71.622-170.852l-0.452-2.834c-0.245-1.786-0.385-3.851-0.385-5.948 0-23.224 17.18-42.435 39.525-45.617l0.246-0.029h6.695c0.079 0 0.173-0.001 0.267-0.001 23.32 0 42.695 16.889 46.56 39.103l0.041 0.282c10.832 52.675 31.395 99.227 59.869 139.826l-0.792-1.192c57.87 80.076 150.985 131.579 256.129 131.579 5.773 0 11.51-0.155 17.207-0.462l-0.794 0.034h4.726c0.236-0.004 0.515-0.007 0.794-0.007 25.392 0 46.028 20.364 46.467 45.652l0.001 0.041v53.563l133.12-123.668-133.12-107.126v45.292c0 26.211-21.248 47.458-47.458 47.458s-47.458-21.248-47.458-47.458v0-140.997c1.032-17.666 11.957-32.549 27.276-39.27l0.293-0.115c5.8-2.736 12.598-4.333 19.769-4.333 0.111 0 0.223 0 0.334 0.001h-0.017c11.513 0.024 22.087 4.028 30.422 10.708l-0.096-0.075 251.668 202.043c10.324 8.297 16.877 20.924 16.877 35.081 0 13.062-5.578 24.822-14.482 33.026l-0.031 0.028-252.062 228.825c-8.588 7.887-20.090 12.721-32.721 12.721-6.666 0-13.017-1.346-18.797-3.782l0.319 0.119c-16.902-6.878-28.626-23.125-28.751-42.126v-116.201c-128.511-6.895-240.185-73.316-308.695-171.972l-0.868-1.321z" />
<glyph unicode="&#xe92e;" glyph-name="alert_cuowu" d="M512 960c-282.77 0-512-229.23-512-512s229.23-512 512-512c282.77 0 512 229.23 512 512v0c0 282.77-229.23 512-512 512v0zM758.187 249.173c5.883-6.061 9.51-14.34 9.51-23.467s-3.627-17.406-9.519-23.475l0.008 0.008c-5.879-5.935-14.030-9.609-23.040-9.609s-17.161 3.674-23.037 9.606l-0.003 0.003-200.107 199.253-200.533-200.107c-5.879-5.935-14.030-9.609-23.040-9.609s-17.161 3.674-23.037 9.606l-0.003 0.003c-5.883 6.061-9.51 14.34-9.51 23.467s3.627 17.406 9.519 23.475l-0.008-0.008 200.107 199.68-199.68 198.827c-5.883 6.061-9.51 14.34-9.51 23.467s3.627 17.406 9.519 23.475l-0.008-0.008c5.879 5.935 14.030 9.609 23.040 9.609s17.161-3.674 23.037-9.606l0.003-0.003 200.107-199.253 200.533 199.68c5.879 5.935 14.030 9.609 23.040 9.609s17.161-3.674 23.037-9.606l0.003-0.003c5.883-6.061 9.51-14.34 9.51-23.467s-3.627-17.406-9.519-23.475l0.008 0.008-200.107-199.253 199.253-198.827z" />
<glyph unicode="&#xe92f;" glyph-name="alert_jinggao" d="M512 960c-282.77 0-512-229.23-512-512s229.23-512 512-512c282.77 0 512 229.23 512 512v0c0 282.77-229.23 512-512 512v0zM544 160c0-17.673-14.327-32-32-32v0 0c-17.673 0-32 14.327-32 32v0 0c0 17.673 14.327 32 32 32v0 0c17.673 0 32-14.327 32-32v0zM544 288c0-17.673-14.327-32-32-32v0 0c-17.673 0-32 14.327-32 32v0 448c0 17.673 14.327 32 32 32v0 0c17.673 0 32-14.327 32-32v0-448z" />
<glyph unicode="&#xe930;" glyph-name="alert_tishi" d="M512 960c-282.77 0-512-229.23-512-512s229.23-512 512-512c282.77 0 512 229.23 512 512v0c0 282.77-229.23 512-512 512v0zM512 768c17.673 0 32-14.327 32-32s-14.327-32-32-32c-17.673 0-32 14.327-32 32v0c0 17.673 14.327 32 32 32v0zM607.573 128h-191.147c-17.673 0-32 14.327-32 32s14.327 32 32 32v0h61.867v322.56h-62.72c-17.673 0-32 14.327-32 32s14.327 32 32 32v0h96.427c17.673 0 32-14.327 32-32v0-354.56h64.853c17.673 0 32-14.327 32-32s-14.327-32-32-32v0z" />
<glyph unicode="&#xe931;" glyph-name="alert_wancheng" d="M512 960c-282.77 0-512-229.23-512-512s229.23-512 512-512c282.77 0 512 229.23 512 512v0c0 282.77-229.23 512-512 512v0zM821.333 583.68l-415.573-404.48c-5.789-5.782-13.784-9.359-22.613-9.359s-16.824 3.576-22.614 9.359v0l-159.147 151.893c-5.782 5.789-9.359 13.784-9.359 22.613s3.576 16.824 9.359 22.614v0c5.789 5.782 13.784 9.359 22.613 9.359s16.824-3.576 22.614-9.359v0l136.107-128 392.96 384c5.789 5.782 13.784 9.359 22.613 9.359s16.824-3.576 22.614-9.359v0c5.782-5.789 9.359-13.784 9.359-22.613s-3.576-16.824-9.359-22.614v0z" />
<glyph unicode="&#xe932;" glyph-name="alert_cuowu2" d="M717.227 653.867c-6.524 6.524-15.538 10.56-25.493 10.56s-18.969-4.035-25.493-10.56v0l-154.24-154.88-154.24 154.667c-6.643 7.569-16.337 12.321-27.141 12.321-19.912 0-36.053-16.142-36.053-36.053 0-10.751 4.705-20.402 12.169-27.008l0.038-0.033 154.453-154.88-154.453-154.88c-7.502-6.639-12.207-16.29-12.207-27.041 0-19.912 16.142-36.053 36.053-36.053 10.804 0 20.498 4.752 27.105 12.28l0.035 0.041 154.24 154.667 154.24-154.88c6.643-7.569 16.337-12.321 27.141-12.321 19.912 0 36.053 16.142 36.053 36.053 0 10.751-4.705 20.402-12.169 27.008l-0.038 0.033-154.453 155.093 154.453 154.88c6.576 6.5 10.649 15.521 10.649 25.493s-4.073 18.993-10.645 25.49l-0.003 0.003zM512 960c-282.77 0-512-229.23-512-512s229.23-512 512-512c282.77 0 512 229.23 512 512v0c0 282.77-229.23 512-512 512v0zM823.040 136.96c-79.626-79.729-189.682-129.049-311.258-129.049-242.946 0-439.893 196.947-439.893 439.893 0 181.406 109.808 337.166 266.581 404.436l2.864 1.093c50.32 21.728 108.908 34.365 170.448 34.365 242.946 0 439.893-196.947 439.893-439.893 0-121.37-49.153-231.26-128.64-310.849l0.005 0.005z" />
<glyph unicode="&#xe933;" glyph-name="alert_wancheng2" d="M721.28 654.507l-327.467-328.533-85.333 149.333c-5.978 12.128-18.252 20.325-32.441 20.325-19.912 0-36.053-16.142-36.053-36.053 0-7.411 2.236-14.3 6.070-20.028l-0.082 0.131 108.8-190.507c6.335-10.912 17.967-18.133 31.284-18.133 0.027 0 0.053 0 0.080 0h-0.004c0.010 0 0.021 0 0.032 0 6.502 0 12.598 1.742 17.845 4.785l-0.171-0.091c3.264 1.867 6.071 4.062 8.523 6.602l0.011 0.011 359.893 360.96c6.461 6.514 10.453 15.484 10.453 25.387 0 19.912-16.142 36.053-36.053 36.053-9.903 0-18.873-3.993-25.389-10.456l0.002 0.002zM512 960c-282.77 0-512-229.23-512-512s229.23-512 512-512c282.77 0 512 229.23 512 512v0c0 282.77-229.23 512-512 512v0zM823.040 136.96c-79.626-79.729-189.682-129.049-311.258-129.049-242.946 0-439.893 196.947-439.893 439.893 0 181.406 109.808 337.166 266.581 404.436l2.864 1.093c50.32 21.728 108.908 34.365 170.448 34.365 242.946 0 439.893-196.947 439.893-439.893 0-121.37-49.153-231.26-128.64-310.849l0.005 0.005z" />
<glyph unicode="&#xe934;" glyph-name="tag_huandeng" horiz-adv-x="1792" d="M1728 908.8c6.998-0.174 12.626-5.802 12.8-12.784v-896.016c-0.174-6.998-5.802-12.626-12.784-12.8h-1664.016c-6.998 0.174-12.626 5.802-12.8 12.784v896.016c0.174 6.998 5.802 12.626 12.784 12.8h1664.016zM1728 960h-1664c-35.346 0-64-28.654-64-64v0-896c0-35.346 28.654-64 64-64v0h1664c35.346 0 64 28.654 64 64v0 896c0 35.346-28.654 64-64 64v0zM528.64 389.44c28.008-54.209 54.898-118.799 76.682-185.693l2.678-9.507-41.6-18.56c-7.68 23.68-15.36 46.080-23.040 67.52-65.939-21.397-144.683-39.307-225.606-50.377l-7.354-0.823-12.8 41.6c8.14 3.153 15.142 7.481 21.19 12.861l-0.070-0.061c51.192 60.799 96.843 129.246 134.425 202.514l2.855 6.126q-76.48-9.6-157.12-17.28l-10.88 39.36c7.752 3.751 14.060 9.442 18.452 16.455l0.108 0.185c44.168 69.482 83.571 149.43 114.078 233.64l2.722 8.6 44.8-17.28c-34.924-91.259-76.597-169.958-126.388-242.659l2.548 3.939c44.8 3.84 89.28 8.96 134.72 16q24 46.080 49.92 97.6l42.24-15.36q-123.2-242.24-204.16-337.28c63.289 11.257 118.054 25.46 171.112 43.372l-8.232-2.412c-14.080 34.56-27.52 65.6-41.6 96zM845.76 701.44q0-356.16-9.6-439.68c-6.4-64-37.76-96-93.76-96-14.080 0-38.4 0-72 2.56l-10.88 42.24c29.44 0 55.040-2.56 76.48-2.56 32 0 51.84 24.32 56.96 72.64q7.040 61.12 7.040 376.96h-225.92v44.16zM951.040 628.8l40.32-3.2c-2.244-65.464-12.38-127.627-29.493-186.828l1.333 5.388-39.040 11.52c15.534 51.522 25.345 110.966 27.176 172.414l0.024 1.026zM1152 652.48l26.24-33.92c-30.336-40.492-64.684-75.551-103.109-105.646l-1.211-0.914v-11.52c-0.665-36.071-3.204-70.773-7.532-104.916l0.492 4.756c36.451-38.836 71.376-80.561 103.862-124.208l2.698-3.792-26.88-40.32c-29.593 46.559-58.363 86.324-89.239 124.306l1.879-2.386c-13.085-75.763-47.26-141.944-96.189-194.124l0.189 0.204-35.2 29.76c66.24 64 99.52 168 100.8 310.080v236.16h44.8v-176c29.147 27.366 54.975 57.667 77.203 90.598l1.197 1.882zM1177.92 704h326.080v-45.12h-116.16v-439.68c0.334-2.177 0.525-4.689 0.525-7.245 0-27.747-22.493-50.24-50.24-50.24-2.556 0-5.068 0.191-7.522 0.559l0.276-0.034h-88l-10.24 44.16c28.8-1.92 56.32-3.2 82.24-3.2 0.923-0.122 1.989-0.192 3.072-0.192 13.608 0 24.64 11.032 24.64 24.64 0 1.083-0.070 2.15-0.205 3.196l0.013-0.124v428.16h-164.48z" />
<glyph unicode="&#xe935;" glyph-name="tag_remen" horiz-adv-x="1792" d="M1728 908.8c6.998-0.174 12.626-5.802 12.8-12.784v-896.016c-0.174-6.998-5.802-12.626-12.784-12.8h-1664.016c-6.998 0.174-12.626 5.802-12.8 12.784v896.016c0.174 6.998 5.802 12.626 12.784 12.8h1664.016zM1728 960h-1664c-35.346 0-64-28.654-64-64v0-896c0-35.346 28.654-64 64-64v0h1664c35.346 0 64 28.654 64 64v0 896c0 35.346-28.654 64-64 64v0zM848.64 317.44c-21.092 0.796-39.556 11.385-51.067 27.326l-0.133 0.194c-25.6 32-38.4 96-38.4 188.8v78.72h-84.48c-0.040-47.786-6.343-94.083-18.131-138.137l0.851 3.737c30.916-23.211 58.281-47.126 83.775-72.895l0.065-0.065-25.6-39.040c-24.32 24.96-49.28 47.36-73.6 67.84-20.622-49.388-52.073-90.702-91.562-122.416l-0.598-0.464-33.92 30.080c39.899 31.079 70.564 72.254 88.344 119.723l0.616 1.877c-17.242 12.802-37.090 25.913-57.635 37.964l-3.165 1.716 24.32 35.84c17.28-10.24 33.92-20.48 50.56-32 7.406 31.801 11.819 68.415 12.158 106.001l0.002 0.239h-75.52v44.8h74.24v83.84h44.8v-83.84h129.92v-123.52c-0.519-7.625-0.814-16.528-0.814-25.499 0-45.374 7.561-88.982 21.492-129.633l-0.837 2.812c5.12-12.16 10.24-18.56 15.36-18.56s8.96 7.68 12.8 23.040c4.425 21.698 7.198 46.849 7.674 72.562l0.006 0.398 35.2-17.92c0.054-1.961 0.085-4.268 0.085-6.583 0-35.746-7.327-69.781-20.56-100.686l0.635 1.668c-5.042-10.173-15.063-17.202-26.79-17.916l-0.090-0.004zM316.8 659.84h90.88v83.2h46.72v-83.2h78.080v-44.8h-78.080v-96c25.6 7.040 51.2 14.72 75.52 22.4v-44.8c-24.96-7.68-49.92-14.080-75.52-20.48v-101.76c0.397-2.327 0.624-5.008 0.624-7.742 0-26.686-21.634-48.32-48.32-48.32-2.138 0-4.243 0.139-6.308 0.408l0.243-0.026h-59.52l-10.24 44.16c15.955-1.881 34.623-3.039 53.529-3.198l0.231-0.002c15.36 0 23.040 8.96 23.040 26.24v77.44c-32-7.040-64-13.44-96-19.84l-10.88 43.52c37.12 5.12 72.96 12.16 108.16 19.84v108.16h-92.16zM389.12 296.96l38.4-18.56c-22.587-48.898-49.762-91.028-81.926-128.777l0.646 0.777-37.76 27.52c31.203 34.392 58.095 73.552 79.291 116.052l1.349 2.988zM526.080 280.96c12.022-31.708 24.327-72.117 34.305-113.433l1.535-7.527-46.72-10.24c-7.679 45.906-18.798 86.576-33.501 125.487l1.501-4.527zM658.56 289.92c17.873-35.617 34.829-78.036 48.326-121.969l1.594-6.031-46.080-10.24c-12.339 48.833-28.553 91.434-48.99 131.522l1.63-3.522zM783.36 304.64c30.395-36.839 59.342-77.812 85.148-120.882l2.532-4.558-39.040-26.88c-28.171 48.754-56.937 90.575-88.582 129.986l1.542-1.986zM1429.12 160h-55.040l-11.52 42.88h56.96c18.56 0 28.16 12.16 28.16 36.48v425.6h-245.76v42.24h290.56v-483.2c0.312-2.24 0.49-4.828 0.49-7.458 0-31.458-25.502-56.96-56.96-56.96-2.429 0-4.822 0.152-7.17 0.447l0.28-0.029zM981.12 635.52h42.88v-480h-44.8zM1073.92 747.52c28.293-34.257 54.186-72.608 76.218-113.354l1.862-3.766-41.6-21.76c-24.204 45.223-50.743 84.22-80.869 120.103l0.869-1.063z" />
<glyph unicode="&#xe936;" glyph-name="list_dingshifabu" horiz-adv-x="948" d="M648.406 887.403h-349.612c-0.686-0.047-1.486-0.073-2.293-0.073-19.836 0-35.916 16.080-35.916 35.916 0 0.026 0 0.051 0 0.077v-0.004c0 21.102 17.107 38.209 38.209 38.209v0h349.612c21.102 0 38.209-17.107 38.209-38.209v0c-1.245-20.092-17.844-35.916-38.14-35.916-0.024 0-0.048 0-0.073 0h0.004zM473.791 853.397c2.518 0.049 5.486 0.077 8.461 0.077 254.711 0 461.668-204.457 465.707-458.205l0.005-0.379c-3.615-254.252-210.57-458.973-465.341-458.973-3.105 0-6.204 0.030-9.295 0.091l0.462-0.007c-2.514-0.049-5.479-0.077-8.45-0.077-254.557 0-461.34 204.546-464.955 458.244l-0.004 0.34c3.622 254.246 210.575 458.959 465.341 458.959 2.837 0 5.668-0.025 8.493-0.076l-0.425 0.006zM873.457 394.89c-4.903 214.187-179.694 385.943-394.601 385.943-1.781 0-3.559-0.012-5.334-0.035l0.269 0.003c-1.395 0.018-3.042 0.028-4.691 0.028-214.982 0-389.859-171.71-394.966-385.464l-0.009-0.475c4.054-214.437 178.842-386.717 393.868-386.717 2.038 0 4.073 0.015 6.104 0.046l-0.307-0.004c1.61-0.024 3.511-0.037 5.415-0.037 215.024 0 389.811 172.277 393.862 386.332l0.006 0.38zM648.788 318.472h-174.997c-1.16-0.139-2.503-0.218-3.865-0.218-18.992 0-34.388 15.396-34.388 34.388 0 0.614 0.016 1.225 0.048 1.831l-0.004-0.085v230.782c-0.002 0.144-0.003 0.313-0.003 0.483 0 19.625 15.909 35.534 35.534 35.534 0.942 0 1.876-0.037 2.8-0.109l-0.122 0.008c0.686 0.047 1.486 0.073 2.293 0.073 19.836 0 35.916-16.080 35.916-35.916 0-0.026 0-0.051 0-0.077v0.004-196.012h137.552c21.102 0 38.209-17.107 38.209-38.209v0c-1.995-19.404-18.255-34.411-38.020-34.411-0.47 0-0.937 0.008-1.403 0.025l0.067-0.002z" />
<glyph unicode="&#xe937;" glyph-name="bar_xiaoxitixing" horiz-adv-x="878" d="M828.709 247.589c-36.571 45.714-87.771 109.714-87.771 175.909v209.189c0 181.029-133.12 327.314-302.080 327.314s-304.274-146.286-304.274-327.314v-209.554c0-64.731-54.857-125.806-89.966-173.349s-55.954-76.069-39.497-109.714 51.566-33.28 81.92-33.28h182.857c0-93.415 75.728-169.143 169.143-169.143s169.143 75.728 169.143 169.143v0h185.783c19.383 0 64.366 0 80.091 33.28s-9.509 64.731-44.251 107.52zM438.857 3.291c-56.845 0.414-102.766 46.592-102.766 103.495 0 0.129 0 0.259 0.001 0.388v-0.020h205.531c0.002-0.218 0.003-0.475 0.003-0.732 0-56.83-45.967-102.924-102.749-103.131h-0.020zM793.966 175.177h-718.994c6.583 10.24 16.091 23.406 23.771 34.011 38.766 52.663 103.131 126.537 103.131 213.943v209.554c0 144.457 102.034 258.926 236.983 258.926s234.789-114.469 234.789-258.926v-209.554c0-90.331 59.611-165.669 103.131-219.429 7.314-9.143 16.091-19.749 23.040-28.891h-6.583z" />
<glyph unicode="&#xe938;" glyph-name="list_zhiduyemian" d="M1010.036 27.927l-177.261 180.364c55.759 75.816 89.233 171.026 89.233 274.054 0 1.562-0.008 3.123-0.023 4.682l0.002-0.239c0.020 1.627 0.032 3.547 0.032 5.471 0 256.178-205.928 464.259-461.28 467.738l-0.328 0.004c-0.171 0-0.374 0-0.577 0-254.064 0-460.024-205.96-460.024-460.024 0-4.638 0.069-9.259 0.205-13.864l-0.016 0.675c-0.060-2.779-0.094-6.053-0.094-9.335 0-255.323 205.579-462.631 460.241-465.426l0.265-0.002c0.397-0.001 0.867-0.002 1.338-0.002 115.278 0 220.226 44.23 298.799 116.645l-0.307-0.279 178.424-178.424c8.895-8.501 20.976-13.733 34.28-13.733 15.355 0 29.081 6.97 38.189 17.919l0.065 0.081c8.273 9.681 13.307 22.345 13.307 36.186 0 14.461-5.495 27.638-14.511 37.557l0.041-0.046zM460.412 110.933c-202.759 3.479-365.79 168.663-365.79 371.924 0 1.382 0.008 2.762 0.023 4.14l-0.002-0.21c-0.011 1.051-0.017 2.293-0.017 3.536 0 203.182 163.075 368.277 365.48 371.539l0.307 0.004c202.837-2.832 366.178-167.924 366.178-371.166 0-1.376-0.007-2.75-0.022-4.122l0.002 0.209c0.016-1.28 0.025-2.792 0.025-4.306 0-203.322-163.298-368.503-365.896-371.545l-0.286-0.003zM409.988 218.376c22.707 0 41.115 18.408 41.115 41.115s-18.408 41.115-41.115 41.115v0h-136.145c-22.707 0-41.115-18.408-41.115-41.115s18.408-41.115 41.115-41.115v0zM512 494.158h-232.727c-0.843 0.057-1.826 0.090-2.818 0.090-23.361 0-42.491-18.116-44.107-41.065l-0.008-0.14c1.625-23.090 20.755-41.205 44.115-41.205 0.991 0 1.975 0.033 2.95 0.097l-0.133-0.007h232.727c1.701-0.247 3.664-0.388 5.661-0.388 22.921 0 41.503 18.582 41.503 41.503s-18.582 41.503-41.503 41.503c-1.997 0-3.96-0.141-5.882-0.414l0.221 0.026zM279.273 688.097c-0.86 0.059-1.864 0.093-2.876 0.093-23.303 0-42.432-17.868-44.433-40.651l-0.012-0.169c1.611-23.101 20.747-41.231 44.117-41.231 1.128 0 2.245 0.042 3.351 0.125l-0.147-0.009h387.879c0.967-0.075 2.094-0.117 3.231-0.117 23.448 0 42.67 18.092 44.469 41.078l0.010 0.154c-1.808 23.14-21.030 41.232-44.478 41.232-1.137 0-2.264-0.043-3.38-0.126l0.149 0.009z" />
<glyph unicode="&#xe939;" glyph-name="menu_fanhuiliebiao" horiz-adv-x="1103" d="M1102.769 628.382v275.692c0 31.431-25.48 56.911-56.911 56.911s-56.911-25.48-56.911-56.911v-275.692c0.001-0.299 0.002-0.652 0.002-1.006 0-87.398-35.364-166.536-92.562-223.887l0.007 0.007c-57.088-57.616-136.225-93.301-223.697-93.342h-481.682l159.508 160.689c10.233 10.376 16.553 24.635 16.553 40.369s-6.32 29.993-16.56 40.376l0.006-0.007c-10.187 9.841-24.077 15.906-39.385 15.906s-29.198-6.064-39.401-15.921l-255.196-255.196c-10.233-10.376-16.553-24.635-16.553-40.369s6.32-29.993 16.56-40.376l-0.006 0.007 259.151-262.695c10.187-9.841 24.077-15.906 39.385-15.906s29.198 6.064 39.401 15.921l-0.016-0.016c10.233 10.376 16.553 24.635 16.553 40.369s-6.32 29.993-16.56 40.376l0.006-0.007-157.538 162.265h476.16c0.266-0.001 0.58-0.001 0.894-0.001 118.618 0 225.906 48.509 303.108 126.772l0.047 0.047c77.636 77.856 125.64 185.296 125.64 303.948 0 0.59-0.001 1.179-0.004 1.768v-0.091z" />
<glyph unicode="&#xe93a;" glyph-name="list_shipincaozuo" d="M522.24 223.403c37.703 0 68.267 30.564 68.267 68.267s-30.564 68.267-68.267 68.267v0h-453.973c-37.703 0-68.267-30.564-68.267-68.267s30.564-68.267 68.267-68.267v0zM68.267 72.533c-0.726 0.029-1.578 0.045-2.434 0.045-36.383 0-65.877-29.494-65.877-65.877 0-0.856 0.016-1.708 0.049-2.557l-0.004 0.122c0-37.703 30.564-68.267 68.267-68.267v0h247.125c37.703 0 68.267 30.564 68.267 68.267v0c0 37.703-30.564 68.267-68.267 68.267v0zM941.056 522.752c1.437-0.105 3.114-0.164 4.804-0.164 38.171 0 69.239 30.416 70.287 68.334l0.002 0.097c0.001 0.102 0.001 0.222 0.001 0.342 0 37.703-30.564 68.267-68.267 68.267-2.405 0-4.78-0.124-7.12-0.367l0.293 0.025h-864.939c-2.357 0.288-5.085 0.453-7.852 0.453-37.703 0-68.267-30.564-68.267-68.267 0-0.159 0.001-0.319 0.002-0.478v0.024c1.009-38.049 32.093-68.508 70.291-68.508 2.051 0 4.081 0.088 6.087 0.26l-0.261-0.018zM941.056 822.784h-864.939c-1.144-0.065-2.483-0.101-3.83-0.101-38.8 0-70.468 30.537-72.281 68.888l-0.006 0.163c1.797 38.155 33.168 68.409 71.605 68.409 1.587 0 3.163-0.052 4.725-0.153l-0.213 0.011h864.939c1.437 0.105 3.114 0.164 4.804 0.164 38.171 0 69.239-30.416 70.287-68.334l0.002-0.097c-1.249-38.043-32.388-68.408-70.62-68.408-1.574 0-3.136 0.051-4.684 0.153l0.211-0.011zM645.803 387.243c0 37.547 25.6 50.859 57.344 30.037l297.301-196.949c14.017-7.093 23.459-21.388 23.459-37.888s-9.442-30.795-23.218-37.777l-0.241-0.111-297.301-197.291c-31.744-20.821-57.344-7.168-57.344 30.037z" />
<glyph unicode="&#xe93b;" glyph-name="menu_bofang" horiz-adv-x="939" d="M0 885.76v-870.4c0-73.387 55.467-98.987 121.6-64l768 426.667c66.133 38.4 66.133 98.987 0 134.4l-768 430.507c-15.56 10.622-34.762 16.989-55.447 17.067h-0.020c-38.4 5.547-66.133-23.467-66.133-74.24z" />
<glyph unicode="&#xe93c;" glyph-name="menu_shouqi" horiz-adv-x="1638" d="M864.256 945.664v0c-13.147 7.177-28.798 11.398-45.434 11.398-29.323 0-55.583-13.112-73.238-33.792l-0.111-0.133-716.8-802.816c-18.87-20.379-30.446-47.75-30.446-77.824s11.576-57.445 30.514-77.899l-0.069 0.075c18.047-19.778 43.932-32.139 72.704-32.139s54.657 12.361 72.635 32.062l0.069 0.077 645.12 729.088 643.072-720.896c18.047-19.778 43.932-32.139 72.704-32.139s54.657 12.361 72.635 32.062l0.069 0.077c18.87 20.379 30.446 47.75 30.446 77.824s-11.576 57.445-30.514 77.899l0.069-0.075-716.8 794.624c-7.374 9.027-16.196 16.543-26.167 22.286l-0.457 0.242z" />
<glyph unicode="&#xe93d;" glyph-name="menu_zhankai" horiz-adv-x="1638" d="M774.144-49.664v0c13.147-7.177 28.798-11.398 45.434-11.398 29.323 0 55.583 13.112 73.238 33.792l0.111 0.133 716.8 802.816c18.87 20.379 30.446 47.75 30.446 77.824s-11.576 57.445-30.514 77.899l0.069-0.075c-18.047 19.778-43.932 32.139-72.704 32.139s-54.657-12.361-72.635-32.062l-0.069-0.077-645.12-729.088-643.072 720.896c-18.047 19.778-43.932 32.139-72.704 32.139s-54.657-12.361-72.635-32.062l-0.069-0.077c-18.685-19.76-30.304-46.372-30.719-75.694l-0.001-0.082c-0.001-0.206-0.002-0.449-0.002-0.693 0-28.895 10.88-55.249 28.767-75.189l-0.093 0.105 718.848-798.72c7.374-9.027 16.196-16.543 26.167-22.286l0.457-0.242z" />
<glyph unicode="&#xe93e;" glyph-name="icon_shuaxin" horiz-adv-x="1033" d="M734.316 646.512c-18.414 0-36.828-32.786-36.828-50.751s18.414-50.302 36.828-50.302h214.232c0.535-0.012 1.166-0.020 1.798-0.020 45.489 0 82.394 36.754 82.637 82.186v198.535c0 28.401-23.024 51.425-51.425 51.425s-51.425-23.024-51.425-51.425v0-72.758c-14.584 21.785-31.029 40.656-49.566 57.236l-0.286 0.252c-94.134 91.183-222.226 147.797-363.534 149.107l-0.256 0.002c-280.832-2.542-507.509-230.79-507.509-511.98 0-282.77 229.23-512 512-512 282.763 0 511.989 229.219 512 511.979v0.001c0 28.401-23.024 51.425-51.425 51.425s-51.425-23.024-51.425-51.425v0c-0.761-226.384-184.456-409.609-410.945-409.609-0.948 0-1.896 0.003-2.842 0.010l0.145-0.001c-1.068-0.010-2.33-0.016-3.594-0.016-226.402 0-409.995 183.284-410.497 409.568v0.048c5.225 225.653 188.053 406.909 413.833 409.598l0.258 0.002c0.491 0.002 1.072 0.003 1.653 0.003 111.742 0 213.079-44.55 287.218-116.858l-0.085 0.083c28.832-26.199 52.503-57.477 69.709-92.506l0.803-1.81z" />
<glyph unicode="&#xe93f;" glyph-name="icon_pipei" horiz-adv-x="1244" d="M1121.996 541.041c-43.177 239.573-250.076 418.96-498.873 418.96-0.357 0-0.714 0-1.071-0.001h0.056c-1.563 0.018-3.409 0.028-5.258 0.028-199.851 0-372.067-118.32-450.418-288.732l-1.27-3.081c-0.318-2.224-0.5-4.793-0.5-7.405 0-20.25 10.933-37.946 27.218-47.508l0.259-0.141c32.482-16.516 72.671 12.662 72.671 12.662 67.453 132.5 201.5 222.415 356.86 225.713l0.439 0.007c187.011-2.611 342.906-132.733 384.821-307.216l0.555-2.736h-110.108c-11.561-11.561-39.639-30.28-15.415-61.11l148.095-154.151c8.219-5.146 18.205-8.197 28.903-8.197s20.685 3.052 29.135 8.332l-0.232-0.135 151.398 154.151c3.016 6.135 4.781 13.354 4.781 20.985 0 16.624-8.372 31.292-21.131 40.017l-0.166 0.107zM248.292 318.073h114.512c11.561 11.561 20.92 46.796 9.359 58.357l-153.6 156.903c-7.896 4.637-17.392 7.376-27.527 7.376s-19.631-2.739-27.787-7.516l0.26 0.141-155.802-156.903c-4.365-6.825-6.958-15.149-6.958-24.079 0-13.686 6.090-25.949 15.708-34.228l0.059-0.050h117.265c57.236-220.449 253.879-380.808 488.184-382.073l0.143-0.001c188.108 2.327 351.595 105.523 439.108 257.906l1.322 2.498c0.66 3.015 1.038 6.479 1.038 10.031 0 20.074-12.071 37.328-29.351 44.9l-0.315 0.123c-7.941 3.688-17.238 5.839-27.037 5.839-18.296 0-34.84-7.5-46.726-19.593l-0.009-0.009c-71.849-113.751-195.879-188.868-337.634-191.581l-0.396-0.006c-173.629 0.429-320.842 113.050-373.009 269.183l-0.806 2.783z" />
<glyph unicode="&#xe940;" glyph-name="icon_xiazai" horiz-adv-x="992" d="M647.040 196.16l-107.2-108.48-1.28 404c0 0.051 0 0.11 0 0.17 0 24.582-19.658 44.572-44.11 45.109l-0.050 0.001c-24.434-0.624-44.003-20.58-44.003-45.106 0-0.174 0.001-0.347 0.003-0.52v0.026l1.28-402.56-106.56 107.52c-7.953 8.054-18.994 13.042-31.2 13.042s-23.247-4.988-31.195-13.038l-0.005-0.005c-7.975-8.108-12.899-19.239-12.899-31.52s4.924-23.412 12.905-31.526l-0.006 0.006 181.28-184.16c7.953-8.054 18.994-13.042 31.2-13.042s23.247 4.988 31.195 13.038l0.005 0.005 183.040 184.16c8.013 8.091 12.964 19.227 12.964 31.52s-4.951 23.429-12.968 31.524l0.004-0.004c-7.953 8.054-18.994 13.042-31.2 13.042s-23.247-4.988-31.195-13.038l-0.005-0.005zM992 465.6c-6.72-96-80-197.76-224-197.76-65.76 0-100.48 0-100.48 0-24.258 0.623-43.685 20.436-43.685 44.786 0 0.23 0.002 0.459 0.005 0.689v-0.035c0 0.004 0 0.009 0 0.014 0 24.614 19.639 44.64 44.102 45.265l0.058 0.001s34.56-1.28 99.84-1.28c88.48 0 132.16 56.8 136.32 114.24s-32 124.32-124.16 137.6c-12.601 1.926-23.263 8.961-29.981 18.885l-0.099 0.155c-4.827 7.042-7.708 15.746-7.708 25.124 0 3.573 0.418 7.049 1.209 10.38l-0.061-0.304c11.68 50.24 0 89.92-33.6 108.64-12.109 6.382-26.463 10.127-41.691 10.127-26.796 0-50.884-11.597-67.517-30.046l-0.072-0.081c-7.915-7.826-18.803-12.661-30.819-12.661-16.855 0-31.489 9.512-38.826 23.461l-0.115 0.24c-61.6 116.96-157.6 123.2-220.96 92.96-50.558-23.086-85.059-73.206-85.059-131.385 0-21.998 4.932-42.843 13.752-61.491l-0.373 0.876c2.376-5.301 3.76-11.489 3.76-18s-1.384-12.699-3.874-18.286l0.114 0.286c-5.31-11.315-14.949-19.858-26.727-23.594l-0.313-0.086c-128-39.52-124.8-125.44-120.96-150.88 7.040-48 44.48-95.2 102.24-95.2h134.24c24.232-0.090 43.841-19.755 43.841-44 0-0.113 0-0.225-0.001-0.337v0.017c-0.088-23.969-19.539-43.365-43.52-43.365-0.225 0-0.45 0.002-0.674 0.005h-133.886c-97.543 0.961-177.743 73.971-189.977 168.309l-0.103 0.971c-11.52 76.64 20.16 178.88 140.32 233.44-3.758 15.648-5.914 33.614-5.914 52.084 0 93.137 54.807 173.474 133.929 210.517l1.425 0.599c92.64 44.32 223.2 32.16 309.92-88.48 24.843 14.749 54.767 23.466 86.728 23.466 30.595 0 59.324-7.988 84.215-21.992l-0.863 0.446c50.376-30.219 83.569-84.542 83.569-146.617 0-5.388-0.25-10.717-0.739-15.977l0.051 0.674c91.626-25.669 157.7-108.441 157.7-206.645 0-5.544-0.211-11.040-0.624-16.478l0.044 0.723z" />
<glyph unicode="&#xe941;" glyph-name="list_yisuoding" horiz-adv-x="642" d="M91.701 261.922c0 0.121 0 0.264 0 0.407 0 127.304 102.229 230.73 229.072 232.665l0.182 0.002c126.395-3.789 227.616-106.346 229.252-232.917l0.002-0.157c0-126.613-102.64-229.254-229.254-229.254s-229.254 102.64-229.254 229.254v0zM320.955 868.299c93.247-0.863 168.505-76.654 168.505-170.023 0-0.405-0.001-0.811-0.004-1.215v0.062-157.803c-46.585 30.207-103.546 48.167-164.701 48.167-1.336 0-2.67-0.009-4.002-0.026l0.202 0.002c-1.186 0.017-2.586 0.026-3.988 0.026-61.144 0-118.059-18.111-165.671-49.262l1.157 0.71v157.803c-0.004 0.456-0.007 0.995-0.007 1.535 0 93.37 75.26 169.162 168.427 170.022l0.082 0.001zM580.776 697.122c0 143.495-116.326 259.821-259.821 259.821s-259.821-116.326-259.821-259.821v0-244.537c-38.509-52.85-61.609-119.074-61.609-190.694 0-178.423 143.371-323.359 321.192-325.889l0.238-0.003c177.941 2.684 321.158 147.561 321.158 325.888 0 71.455-22.995 137.54-61.988 191.258l0.651-0.942zM275.104 293.636v-124.561c0-25.323 20.528-45.851 45.851-45.851s45.851 20.528 45.851 45.851v0 124.179c0 25.323-20.528 45.851-45.851 45.851v0c-0.346 0.010-0.753 0.015-1.161 0.015-24.69 0-44.704-20.015-44.704-44.704 0-0.408 0.005-0.816 0.016-1.221l-0.001 0.060z" />
<glyph unicode="&#xe942;" glyph-name="list_zhengchang" horiz-adv-x="718" d="M98.579 261.54c0 121.887 108.131 233.075 260.203 233.075s260.203-112.334 260.203-233.075-106.985-233.839-259.821-233.839-260.585 111.952-260.585 233.839zM168.119 536.645v159.713c4.868 96.127 83.993 172.225 180.892 172.225 3.571 0 7.119-0.103 10.639-0.307l-0.487 0.023c2.528 0.125 5.49 0.196 8.469 0.196 100.869 0 182.639-81.77 182.639-182.639 0-1.681-0.023-3.357-0.068-5.028l0.005 0.246h99.343c9.934 149.015-124.179 278.925-290.388 278.925s-290.388-126.472-290.388-263.642v-244.155c-42.46-51.592-68.252-118.293-68.394-191.014v-0.031c-0.382-188.37 167.737-325.158 358.782-325.158s359.164 137.17 359.164 325.54-168.119 325.54-359.164 325.54c-6.024 0.415-13.055 0.652-20.142 0.652-63.607 0-122.759-19.070-172.052-51.806l1.149 0.718zM309.875 292.49v-124.179c-0.002-0.152-0.003-0.332-0.003-0.511 0-25.323 20.528-45.851 45.851-45.851 1.211 0 2.411 0.047 3.599 0.139l-0.157-0.010c1.030-0.082 2.23-0.129 3.442-0.129 25.323 0 45.851 20.528 45.851 45.851 0 0.18-0.001 0.359-0.003 0.539v-0.027 124.179c-0.185 25.815-21.155 46.671-46.996 46.671-0.807 0-1.609-0.020-2.406-0.060l0.112 0.004c-0.352 0.009-0.767 0.014-1.183 0.014-26.133 0-47.441-20.658-48.485-46.535l-0.003-0.095z" />
<glyph unicode="&#xe943;" glyph-name="form_xiazaidizhi" d="M325.486 477.623c-0.497 0.020-1.081 0.031-1.667 0.031-24.641 0-44.617-19.976-44.617-44.617 0-12.47 5.116-23.745 13.363-31.842l182.864-182.864c8.123-8.037 19.299-13.003 31.634-13.003s23.512 4.965 31.638 13.007l182.853 182.853c8.104 8.024 13.123 19.151 13.123 31.451s-5.018 23.428-13.119 31.448l-0.004 0.004c-8.181 8.059-19.418 13.035-31.817 13.035s-23.636-4.976-31.823-13.041l0.006 0.005-105.691-105.326v556.617c-2.146 23.038-21.383 40.931-44.8 40.931s-42.654-17.893-44.787-40.753l-0.013-0.178v-556.251l-105.326 105.326c-8.164 8.107-19.401 13.128-31.81 13.166h-0.007zM983.771 299.52c-21.814 0-39.497-17.683-39.497-39.497v0-222.354c0-12.927-10.479-23.406-23.406-23.406v0h-818.469c-12.927 0-23.406 10.479-23.406 23.406v0 222.354c0 21.814-17.683 39.497-39.497 39.497s-39.497-17.683-39.497-39.497v0-253.44c0.208-39.026 31.892-70.583 70.948-70.583 0 0 0.001 0 0.001 0h882.103c0 0 0.001 0 0.001 0 39.055 0 70.74 31.557 70.948 70.563v253.46c0 21.814-17.683 39.497-39.497 39.497v0z" />
<glyph unicode="&#xe944;" glyph-name="form_zhibokongzhi" d="M934.766 416.183v-435.566c-2.136-22.843-21.214-40.582-44.434-40.582s-42.298 17.739-44.421 40.404l-0.013 0.177v435.566c2.136 22.843 21.214 40.582 44.434 40.582s42.298-17.739 44.421-40.404l0.013-0.177zM890.514 832.731c24.641 0 44.617 19.976 44.617 44.617v36.571c-2.136 22.843-21.214 40.582-44.434 40.582s-42.298-17.739-44.421-40.404l-0.013-0.177v-36.571c0 0 0-0.001 0-0.001 0-24.513 19.768-44.409 44.232-44.616h0.020zM265.509 448c0-0.109 0.001-0.238 0.001-0.368 0-73.465-59.348-133.069-132.715-133.484h-0.039c-74.025 0-134.034 60.009-134.034 134.034s60.009 134.034 134.034 134.034v0c73.408-0.414 132.756-60.018 132.756-133.484 0-0.258-0.001-0.516-0.002-0.773v0.040zM176.64 448c-0.613 23.761-20.020 42.789-43.872 42.789-24.237 0-43.886-19.648-43.886-43.886 0-24.233 19.64-43.878 43.871-43.886h0.001c24.284 0.204 43.892 19.937 43.892 44.25 0 0.258-0.002 0.515-0.007 0.772l0.001-0.039zM644.754 228.571c-1.031-72.527-60.066-130.926-132.742-130.926-73.318 0-132.754 59.436-132.754 132.754 0 73.314 59.429 132.747 132.741 132.754h0.001c73.409-0.413 132.759-60.017 132.759-133.484 0-0.386-0.002-0.773-0.005-1.158v0.059zM555.886 228.571c-0.411 23.921-19.899 43.154-43.88 43.154-24.237 0-43.886-19.648-43.886-43.886 0-24.235 19.645-43.882 43.879-43.886v0c24.282 0.206 43.887 19.939 43.887 44.25 0 0.129-0.001 0.258-0.002 0.387v-0.020zM1024 641.463c-0.621-72.845-59.817-131.657-132.75-131.657-73.318 0-132.754 59.436-132.754 132.754 0 73.317 59.433 132.752 132.749 132.754v0c73.407-0.415 132.755-60.019 132.755-133.484 0-0.129 0-0.258-0.001-0.388v0.020zM935.131 641.463c-0.613 23.761-20.020 42.789-43.872 42.789-24.237 0-43.886-19.648-43.886-43.886 0-24.233 19.64-43.878 43.871-43.886h0.001c24.284 0.204 43.892 19.937 43.892 44.25 0 0.258-0.002 0.515-0.007 0.772l0.001-0.039zM512 50.469c-24.641 0-44.617-19.976-44.617-44.617v0-25.6c2.136-22.843 21.214-40.582 44.434-40.582s42.298 17.739 44.421 40.404l0.013 0.177v25.6c0 0 0 0.001 0 0.001 0 24.513-19.768 44.409-44.232 44.616h-0.020zM512 416.183c24.641 0 44.617 19.976 44.617 44.617v454.583c-2.136 22.843-21.214 40.582-44.434 40.582s-42.298-17.739-44.421-40.404l-0.013-0.177v-453.12c0.205-24.356 19.895-44.046 44.232-44.251h0.020zM133.486 255.634c-24.641 0-44.617-19.976-44.617-44.617v0-230.766c2.136-22.843 21.214-40.582 44.434-40.582s42.298 17.739 44.421 40.404l0.013 0.177v230.766c0 0 0 0.001 0 0.001 0 24.513-19.768 44.409-44.232 44.616h-0.020zM133.486 638.171c0 0 0.001 0 0.001 0 24.513 0 44.409 19.768 44.616 44.232v232.98c-2.136 22.843-21.214 40.582-44.434 40.582s-42.298-17.739-44.421-40.404l-0.013-0.177v-232.96c0.205-24.356 19.895-44.046 44.232-44.251h0.020z" />
</font>
</defs>
</svg>
